<svg id="Layer_1" data-name="Layer 1" xmlns="http://www.w3.org/2000/svg" viewBox="0 0 480 120"><defs><style>.cls-1{fill:#5db346;}.cls-2{fill:#010101;}</style></defs><title>proganica-logo</title><path class="cls-1" d="M49.82,46.2C44.73,51.11,37.68,52,30.64,52c-2.32,0-8.06-.28-8.06-.28V79.47h11v.83H2.93v-.83h9.64V17.55H2.93v-.83H14.79c5.75,0,13.44-.28,15.66-.28,7.32,0,14.27.83,19.74,6.21A16.22,16.22,0,0,1,55,34.33,16.51,16.51,0,0,1,49.82,46.2ZM41.3,20.89c-2.41-2.41-6-3.71-12.42-3.71-1.76,0-6.3.09-6.3.09V51.11c1.21,0,4.73.19,6.49.19,6.49,0,9.55-1.21,12-3.52,3-2.88,4.17-7.42,4.17-13.53C45.28,28.67,44.45,24,41.3,20.89Z"/><path class="cls-1" d="M106.65,81.41c-3.62,0-6.39-.83-8.34-2.87s-3-4.73-3-9.64V63.25c0-6.68-1.21-9.73-3.43-12.14-2.13-2.13-5.19-3.24-10.1-3.24H74.31v31.6h9.64v.83H54.66v-.83h9.64V17.55H54.66v-.83H65.59c5.93,0,11.4-.28,15.76-.28,6.76,0,14.18.83,19.09,5.57a14,14,0,0,1,4.73,10.57c0,9.08-9,14.27-19.46,14.73v.09c7,.19,11.67,2.22,14.55,5,3.52,3.33,5.28,6.39,5.28,14.37v3.51c0,4.73.09,9.64,4.17,9.64a6.2,6.2,0,0,0,4.27-2l.56.55A10.48,10.48,0,0,1,106.65,81.41ZM81.35,17.18c-2.23,0-7,.09-7,.09V47h7c5.84,0,8.53-1.21,10.57-3.43,2.32-2.5,3.52-6.3,3.52-11.3C95.35,21.82,92,17.18,81.35,17.18Z"/><path class="cls-1" d="M139.32,80.86c-17.52,0-31.23-14.74-31.23-32.63s13.71-33.18,31.23-33.18,31.33,15.3,31.33,33.18S156.93,80.86,139.32,80.86Zm0-65.06c-13.81,0-20.11,10.57-20.11,32.16s6.12,32.17,20.11,32.17S159.52,69.55,159.52,48,153.22,15.79,139.32,15.79Z"/><path class="cls-1" d="M231.36,55.55V69.18c-3.34,5-13.91,11.68-24.84,11.68-17.52,0-31.24-14.27-31.24-32.63,0-17.88,13.72-33.18,31.24-33.18,8.62,0,13.25,3.62,16.22,7.42l-.83.56c-3.25-4-7-7.23-15.29-7.23C192.8,15.79,186.5,26.36,186.5,48s6,32.17,20,32.17a29.48,29.48,0,0,0,15.11-4.18V55.55H212v-.83H239.7v.83Z"/><path class="cls-1" d="M263.16,80.3v-.83h10l-8.71-23.91H245.83l-3,7.79c-1.21,3.24-1.95,5.56-1.95,8.16A8,8,0,0,0,243,77.33a7.27,7.27,0,0,0,5.56,2.13h4.63v.83H228.49v-.83H236l23.64-63.86H260l23.36,63.86h7.51v.83ZM257,35.54c-1.11-3.15-1.86-5.65-1.86-5.65h-.1s-.74,2.31-1.85,5.28L246.1,54.72h18Z"/><path class="cls-1" d="M336.82,17.55V81.79l-.28.09L295.66,21c-.83-1.2-2-3.43-2-3.43h-.1s.19,2.32.19,3.71V66.12c0,5.19,1,8,3.25,10.29,1.95,1.95,4.45,3.06,8.8,3.06h1.68v.83H283.06v-.83h9.63V17.55h-9.63v-.83H305.4l28.74,43.47c.83,1.3,1.76,2.88,1.76,2.88h.1s-.1-1.49-.1-2.78V30.16c0-4.54-1-7.6-3.15-9.73-1.77-1.76-4.36-2.88-8.44-2.88h-.74v-.83h22.89v.83Z"/><path class="cls-1" d="M341.16,80.3v-.83h9.64V17.55h-9.64v-.83h29.29v.83H360.8V79.47h9.64v.83Z"/><path class="cls-1" d="M416.9,23.41m0,0c-2.69-3.33-6.59-7-15.58-7-13.8,0-20,10.57-20,32.16s6,32.17,20,32.17c9.73,0,13.81-4.27,16.22-7l.65.46c-2.5,2.79-6.67,7.32-16.87,7.32-17.52,0-31.24-14.27-31.24-32.62,0-17.88,13.72-33.18,31.24-33.18,9.18,0,13.53,3.8,16.31,7.32"/><path class="cls-1" d="M449.36,80.31v-.83h10l-8.71-23.91H432l-3,7.79c-1.21,3.24-1.95,5.56-1.95,8.16a8,8,0,0,0,2.12,5.83,7.27,7.27,0,0,0,5.57,2.13h4.63v.83H414.7v-.83h7.5l23.63-63.86h.38l23.36,63.86h7.5v.83Zm-6.11-44.76c-1.11-3.15-1.86-5.65-1.86-5.65h-.09s-.74,2.31-1.86,5.28l-7.13,19.56h18Z"/><path class="cls-2" d="M12.54,85.73h7.8a6.87,6.87,0,0,1,4.91,1.67,4.07,4.07,0,0,1,1.21,3v.05a4.67,4.67,0,0,1-3.21,4.48c2.27.59,4.26,1.89,4.26,4.51v.05c0,3.16-2.7,5.15-6.77,5.15H12.54Zm7.64,8.72C23,94.45,25,93.07,25,90.56v-.05c0-2.08-1.7-3.48-4.72-3.48H13.94v7.42Zm.62,8.88c3.24,0,5.29-1.48,5.29-3.86v-.05c0-2.32-2-3.67-5.75-3.67h-6.4v7.59Z"/><path class="cls-2" d="M39.84,85.73h7.94a7.44,7.44,0,0,1,5.32,1.86,5,5,0,0,1,1.43,3.51v.05c0,3.16-2.35,5-5.53,5.4l6.24,8.07H53.44l-6-7.83H41.24v7.83h-1.4Zm7.77,9.8c3.16,0,5.51-1.59,5.51-4.32v-.05c0-2.54-2-4.13-5.43-4.13H41.24v8.5Z"/><path class="cls-2" d="M74.34,85.6h1.35l8.8,19H83l-2.4-5.29H69.4L67,104.63H65.54ZM80,98.07,75,87.13,70,98.07Z"/><path class="cls-2" d="M96.29,85.73h1.32l13,16.44V85.73H112v18.89H111L97.64,87.84v16.79H96.29Z"/><path class="cls-2" d="M125.43,85.73h6.29c5.94,0,10,4.08,10,9.39v.05c0,5.32-4.1,9.45-10,9.45h-6.29Zm6.29,17.6c5.26,0,8.58-3.59,8.58-8.1v-.05c0-4.48-3.32-8.15-8.58-8.15h-4.89v16.3Z"/><path class="cls-1" d="M159.23,95.77h-5.86v-1.3h5.86v-5.8h1.35v5.8h5.86v1.3h-5.86v5.8h-1.35Z"/><path class="cls-2" d="M177,85.73h6.29c5.94,0,10,4.08,10,9.39v.05c0,5.32-4.1,9.45-10,9.45H177Zm6.29,17.6c5.26,0,8.58-3.59,8.58-8.1v-.05c0-4.48-3.32-8.15-8.58-8.15H178.4v16.3Z"/><path class="cls-2" d="M206.24,85.73h13.44V87h-12v7.42h10.82v1.29H207.64v7.59h12.17v1.29H206.24Z"/><path class="cls-2" d="M230.83,85.73h1.57l7.4,17.38,7.42-17.38h1.49l-8.31,19h-1.24Z"/><path class="cls-2" d="M260.83,85.73h13.44V87h-12v7.42h10.82v1.29H262.23v7.59h12.17v1.29H260.83Z"/><path class="cls-2" d="M287,85.73h1.4v17.6h11.09v1.29H287Z"/><path class="cls-2" d="M311,95.23v-.05a9.5,9.5,0,1,1,19-.05v.05a9.5,9.5,0,1,1-19,.05Zm17.54,0v-.05c0-4.67-3.4-8.5-8.07-8.5s-8,3.78-8,8.45v.05c0,4.67,3.4,8.5,8.07,8.5S328.59,99.9,328.59,95.23Z"/><path class="cls-2" d="M343,85.73h6.86c4.16,0,7,2.13,7,5.78v.05c0,4-3.43,6-7.37,6h-5.1v7H343Zm6.59,10.55c3.51,0,5.88-1.84,5.88-4.64v-.05c0-3-2.32-4.56-5.72-4.56h-5.34v9.26Z"/><path class="cls-2" d="M369.13,85.73h1.32L378,96.91l7.58-11.18h1.32v18.89h-1.4V88.21l-7.48,10.88H378l-7.48-10.88v16.41h-1.35Z"/><path class="cls-2" d="M400.69,85.73h13.44V87h-12v7.42h10.82v1.29H402.09v7.59h12.17v1.29H400.69Z"/><path class="cls-2" d="M426.91,85.73h1.32l13,16.44V85.73h1.35v18.89h-1.05L428.26,87.84v16.79h-1.35Z"/><path class="cls-2" d="M461.6,87H455V85.73h14.58V87H463v17.6h-1.4Z"/></svg>