<svg id="Layer_1" data-name="Layer 1" xmlns="http://www.w3.org/2000/svg" viewBox="0 0 198 49.5"><defs><style>.cls-1{fill:#ec2128;}.cls-2{fill:#010101;}</style></defs><title>RUNWAY+PROGANICA - Logo.c</title><path class="cls-1" d="M39.27,37.05a5.84,5.84,0,0,1-4.47-1.54c-1.09-1.14-1.59-2.53-1.59-5.16v-3c0-3.57-.65-5.21-1.84-6.5S28.59,19.08,26,19.08h-4V36H27.1v.45H11.42V36h5.16V2.85H11.42V2.4h5.86c3.18,0,6.11-.15,8.44-.15,3.62,0,7.6.45,10.23,3a7.5,7.5,0,0,1,2.53,5.66c0,4.87-4.82,7.65-10.43,7.89v0c3.77.1,6.26,1.19,7.79,2.68,1.89,1.79,2.83,3.43,2.83,7.7v1.89c0,2.53,0,5.16,2.23,5.16a3.31,3.31,0,0,0,2.28-1.09l.3.3A5.62,5.62,0,0,1,39.27,37.05ZM25.71,2.65c-1.19,0-3.77.05-3.77.05V18.63h3.72c3.13,0,4.57-.65,5.66-1.84s1.89-3.38,1.89-6.06C33.21,5.13,31.42,2.65,25.71,2.65Z"/><path class="cls-1" d="M67.59,2.7V24c0,4.51-.64,8.38-3.72,10.71A13.18,13.18,0,0,1,55.69,37c-3.22,0-7-.69-9.32-3.12s-3-5.25-3-10.31V2.7H38.24V2.25H53.91V2.7H48.75V26.1c0,4.36.5,7.14,2.18,8.82a6.67,6.67,0,0,0,4.86,1.64,12.3,12.3,0,0,0,7.53-2.08C66.15,32.34,67,29.17,67,24.21V10.48c0-3.52-.55-5-1.69-6.15A6.13,6.13,0,0,0,60.65,2.7h-.4V2.25H72.74V2.7Z"/><path class="cls-1" d="M96.13,2.7V37l-.15,0L74.15,4.53c-.45-.64-1.09-1.83-1.09-1.83h0s.1,1.24.1,2v24c0,2.77.54,4.26,1.73,5.5a6.06,6.06,0,0,0,4.7,1.63h.89v.45h-13v-.45h5.15V2.7H67.42V2.25H79.35L94.69,25.47c.45.69.94,1.53.94,1.53h0s0-.79,0-1.48V9.43c0-2.43-.54-4.06-1.68-5.2a6,6,0,0,0-4.5-1.53h-.4V2.25h12.23V2.7Z"/><path class="cls-1" d="M145,2.7,132.35,37.05h-.2L123,12.1l-9.21,25h-.2L101.06,2.7H97.25V2.25h14.6V2.7h-5.4l8.71,23.71a31.7,31.7,0,0,1,1,3h0s.5-1.44,1-2.82l5.59-15.15L119.58,2.7h-3.81V2.25h14.6V2.7H125l8.66,23.71a31.61,31.61,0,0,1,1,3h0s.5-1.39,1-2.82l5.59-15.3a12.28,12.28,0,0,0,1-4.36,4.44,4.44,0,0,0-1.09-3.12,3.92,3.92,0,0,0-3-1.14h-2.43V2.25H149V2.7Z"/><path class="cls-1" d="M152.95,37.05V36.6h5.39l-4.69-12.86h-10L142,27.93a12.39,12.39,0,0,0-1,4.39,4.3,4.3,0,0,0,1.15,3.14,3.9,3.9,0,0,0,3,1.15h2.49v.45H134.3V36.6h4L151.05,2.25h.2L163.82,36.6h4v.45ZM149.66,13c-.6-1.7-1-3-1-3h0s-.4,1.25-1,2.84l-3.84,10.52h9.67Z"/><path class="cls-1" d="M183.23,2.71l-9,18.62V36.6h5.28v.46H163.45V36.6h5.33V22.24L158.83,2.71h-3.7V2.25h14.21v.46h-4.52L174,20.87v-.05L179.58,9.3a10.23,10.23,0,0,0,1.17-3.75c0-1.93-1.22-2.84-3.5-2.84h-.81V2.25h10.15v.46Z"/><path class="cls-2" d="M13.35,39.08h3.37a3.17,3.17,0,0,1,2.26.79,2.12,2.12,0,0,1,.61,1.49v0c0,1.34-1,2.11-2.35,2.3l2.65,3.43h-.76l-2.56-3.33H13.95v3.33h-.6Zm3.31,4.17c1.34,0,2.34-.68,2.34-1.84v0c0-1.08-.85-1.76-2.31-1.76H13.95v3.62Z"/><path class="cls-2" d="M21.8,39.08h5.72v.55H22.39v3.16H27v.55h-4.6v3.22h5.18v.55H21.8Z"/><path class="cls-2" d="M29,45.94l.39-.45a3.9,3.9,0,0,0,2.88,1.19c1.21,0,2-.68,2-1.59v0c0-.85-.45-1.34-2.27-1.71s-2.71-1-2.71-2.26v0A2.32,2.32,0,0,1,31.88,39a4,4,0,0,1,2.75,1l-.38.47a3.46,3.46,0,0,0-2.4-.91c-1.18,0-2,.68-2,1.52v0c0,.85.44,1.37,2.34,1.76s2.64,1,2.64,2.21v0c0,1.3-1.11,2.19-2.66,2.19A4.57,4.57,0,0,1,29,45.94Z"/><path class="cls-2" d="M37,39.08h5.72v.55H37.57v3.16h4.6v.55h-4.6v3.22h5.18v.55H37Z"/><path class="cls-2" d="M48,39h.57l3.74,8.09H51.7l-1-2.25H45.94l-1,2.25h-.62Zm2.39,5.3-2.11-4.65-2.12,4.65Z"/><path class="cls-2" d="M54.14,39.08h3.37a3.17,3.17,0,0,1,2.26.79,2.12,2.12,0,0,1,.61,1.49v0c0,1.34-1,2.11-2.35,2.3l2.65,3.43h-.76l-2.56-3.33H54.73v3.33h-.6Zm3.31,4.17c1.34,0,2.34-.68,2.34-1.84v0c0-1.08-.85-1.76-2.31-1.76H54.73v3.62Z"/><path class="cls-2" d="M62.09,43.12v0a4,4,0,0,1,4-4.15,4.24,4.24,0,0,1,3.12,1.29l-.43.44a3.69,3.69,0,0,0-2.71-1.18,3.43,3.43,0,0,0-3.39,3.59v0a3.46,3.46,0,0,0,3.4,3.62,3.68,3.68,0,0,0,2.77-1.25l.4.39a4.24,4.24,0,0,1-3.19,1.4A4,4,0,0,1,62.09,43.12Z"/><path class="cls-2" d="M71.09,39.08h.6V42.8h5.14V39.08h.6v8h-.6V43.35H71.69v3.76h-.6Z"/><path class="cls-1" d="M85.63,43.35H83.14V42.8h2.49V40.33h.57V42.8h2.49v.55H86.2v2.47h-.57Z"/><path class="cls-2" d="M94.41,39.08h2.67a4,4,0,0,1,4.27,4v0a4,4,0,0,1-4.27,4H94.41Zm2.67,7.48a3.41,3.41,0,0,0,3.65-3.44v0a3.43,3.43,0,0,0-3.65-3.47H95v6.93Z"/><path class="cls-2" d="M103.53,39.08h5.71v.55h-5.12v3.16h4.6v.55h-4.6v3.22h5.18v.55h-5.77Z"/><path class="cls-2" d="M110.83,39.08h.67l3.14,7.39,3.16-7.39h.63l-3.53,8.09h-.53Z"/><path class="cls-2" d="M120.21,39.08h5.72v.55H120.8v3.16h4.6v.55h-4.6v3.22H126v.55h-5.77Z"/><path class="cls-2" d="M127.87,39.08h.6v7.48h4.72v.55h-5.31Z"/><path class="cls-2" d="M134.08,43.12v0a4,4,0,1,1,8.08,0v0a4,4,0,1,1-8.08,0Zm7.46,0v0a3.48,3.48,0,0,0-3.43-3.61,3.44,3.44,0,0,0-3.41,3.59v0a3.48,3.48,0,0,0,3.43,3.62A3.44,3.44,0,0,0,141.54,43.12Z"/><path class="cls-2" d="M144.37,39.08h2.92c1.77,0,3,.91,3,2.46v0c0,1.69-1.46,2.56-3.13,2.56H145v3h-.6Zm2.8,4.49c1.49,0,2.5-.78,2.5-2v0c0-1.28-1-1.94-2.43-1.94H145v3.94Z"/><path class="cls-2" d="M152.08,39.08h.56l3.22,4.75,3.23-4.75h.56v8h-.6v-7l-3.18,4.63h0l-3.18-4.62v7h-.57Z"/><path class="cls-2" d="M162.27,39.08H168v.55h-5.12v3.16h4.6v.55h-4.6v3.22H168v.55h-5.77Z"/><path class="cls-2" d="M169.94,39.08h.56l5.54,7v-7h.57v8h-.45L170.51,40v7.14h-.57Z"/><path class="cls-2" d="M181.25,39.63h-2.8v-.55h6.2v.55h-2.8v7.48h-.6Z"/></svg>