<svg id="Layer_1" data-name="Layer 1" xmlns="http://www.w3.org/2000/svg" viewBox="0 0 72 18"><defs><style>.cls-1{fill:#ec2128;}.cls-2{fill:#010101;}</style></defs><title>runway-logo-72px</title><path class="cls-1" d="M13.49,13.63a2.2,2.2,0,0,1-1.68-.58,2.52,2.52,0,0,1-.6-1.95V10a3.24,3.24,0,0,0-.69-2.45,2.69,2.69,0,0,0-2-.65H7v6.38H8.91v.17H3v-.17H4.95V.75H3V.58H5.21C6.4.58,7.51.52,8.39.52a5.45,5.45,0,0,1,3.85,1.12,2.83,2.83,0,0,1,1,2.13c0,1.83-1.81,2.88-3.93,3v0a4.24,4.24,0,0,1,2.94,1,3.33,3.33,0,0,1,1.07,2.9v.71c0,1,0,1.95.84,1.95a1.25,1.25,0,0,0,.86-.41l.11.11A2.12,2.12,0,0,1,13.49,13.63ZM8.39.67,7,.69v6h1.4A2.56,2.56,0,0,0,10.5,6a3.27,3.27,0,0,0,.71-2.28C11.21,1.61,10.54.67,8.39.67Z"/><path class="cls-1" d="M24.16.69v8c0,1.7-.24,3.16-1.4,4a5,5,0,0,1-3.08.88,4.87,4.87,0,0,1-3.51-1.18c-.88-.9-1.12-2-1.12-3.89V.69H13.11V.52H19V.69H17.07V9.51c0,1.64.19,2.69.82,3.32a2.51,2.51,0,0,0,1.83.62,4.63,4.63,0,0,0,2.84-.78c1.06-.8,1.4-2,1.4-3.87V3.62c0-1.33-.21-1.89-.64-2.32A2.31,2.31,0,0,0,21.55.69H21.4V.52h4.71V.69Z"/><path class="cls-1" d="M34.92.69V13.62l-.06,0L26.64,1.38c-.17-.24-.41-.69-.41-.69h0s0,.47,0,.75v9a2.68,2.68,0,0,0,.65,2.07,2.28,2.28,0,0,0,1.77.62H29v.17H24.1v-.17H26V.69H24.1V.52h4.5l5.78,8.75c.17.26.35.58.35.58h0s0-.3,0-.56V3.23a2.61,2.61,0,0,0-.63-2A2.26,2.26,0,0,0,32.4.69h-.15V.52h4.61V.69Z"/><path class="cls-1" d="M53.34.69,48.56,13.64h-.07l-3.43-9.4-3.47,9.4h-.07L36.78.69H35.34V.52h5.5V.69h-2l3.28,8.94a11.94,11.94,0,0,1,.37,1.14h0l.37-1.06L45,4,43.75.69H42.32V.52h5.5V.69h-2l3.26,8.94a11.91,11.91,0,0,1,.37,1.14h0s.19-.52.39-1.06L52,3.94a4.63,4.63,0,0,0,.39-1.64,1.67,1.67,0,0,0-.41-1.18A1.48,1.48,0,0,0,50.8.69h-.91V.52h5V.69Z"/><path class="cls-1" d="M56.33,13.63v-.17h2L56.59,8.62H52.81l-.6,1.58a4.67,4.67,0,0,0-.39,1.65A1.62,1.62,0,0,0,52.25,13a1.47,1.47,0,0,0,1.13.43h.94v.17h-5v-.17h1.52L55.61.52h.07l4.73,12.94h1.52v.17ZM55.09,4.56c-.23-.64-.38-1.15-.38-1.15h0s-.15.47-.38,1.07l-1.45,4h3.64Z"/><path class="cls-1" d="M67.74.69l-3.38,7v5.75h2v.17H60.28v-.17h2V8.05L58.54.69h-1.4V.52H62.5V.69H60.8l3.44,6.84v0l2.12-4.34a3.85,3.85,0,0,0,.44-1.41C66.8,1,66.34.69,65.48.69h-.31V.52H69V.69Z"/><path class="cls-2" d="M3.73,14.4H5a1.19,1.19,0,0,1,.85.3.8.8,0,0,1,.23.56h0c0,.51-.38.8-.89.86l1,1.29H5.91l-1-1.25H4v1.25H3.73ZM5,16c.51,0,.88-.26.88-.69h0c0-.41-.32-.66-.87-.66H4V16Z"/><path class="cls-2" d="M6.91,14.4H9.06v.21H7.14V15.8H8.87V16H7.14v1.21h2v.21H6.91Z"/><path class="cls-2" d="M9.62,17l.15-.17a1.47,1.47,0,0,0,1.09.45c.45,0,.77-.25.77-.6h0c0-.32-.17-.51-.86-.64s-1-.39-1-.85h0a.88.88,0,0,1,1-.8,1.51,1.51,0,0,1,1,.37l-.14.18a1.3,1.3,0,0,0-.9-.34c-.45,0-.74.26-.74.57h0c0,.32.16.52.88.66s1,.39,1,.83h0c0,.49-.42.83-1,.83A1.72,1.72,0,0,1,9.62,17Z"/><path class="cls-2" d="M12.63,14.4h2.15v.21H12.85V15.8h1.73V16H12.85v1.21h2v.21H12.63Z"/><path class="cls-2" d="M16.8,14.38H17l1.41,3h-.25l-.38-.85H16l-.38.85h-.23Zm.9,2-.8-1.75-.8,1.75Z"/><path class="cls-2" d="M19.1,14.4h1.27a1.19,1.19,0,0,1,.85.3.8.8,0,0,1,.23.56h0c0,.51-.38.8-.89.86l1,1.29h-.29l-1-1.25h-1v1.25H19.1ZM20.34,16c.51,0,.88-.26.88-.69h0c0-.41-.32-.66-.87-.66h-1V16Z"/><path class="cls-2" d="M22.09,15.92h0a1.52,1.52,0,0,1,1.51-1.57,1.6,1.6,0,0,1,1.18.48l-.16.16a1.39,1.39,0,0,0-1-.45,1.29,1.29,0,0,0-1.28,1.35h0a1.31,1.31,0,0,0,1.28,1.36,1.39,1.39,0,0,0,1-.47l.15.15a1.6,1.6,0,0,1-1.2.53A1.5,1.5,0,0,1,22.09,15.92Z"/><path class="cls-2" d="M25.49,14.4h.23v1.4h1.94V14.4h.22v3h-.22V16H25.71v1.42h-.23Z"/><path class="cls-1" d="M31,16H30V15.8H31v-.93h.22v.93h.94V16h-.94v.93H31Z"/><path class="cls-2" d="M34.27,14.4h1a1.51,1.51,0,0,1,1.61,1.51h0a1.52,1.52,0,0,1-1.61,1.51h-1Zm1,2.82a1.28,1.28,0,0,0,1.37-1.3h0a1.29,1.29,0,0,0-1.37-1.31h-.78v2.61Z"/><path class="cls-2" d="M37.71,14.4h2.15v.21H37.93V15.8h1.73V16H37.93v1.21h2v.21H37.71Z"/><path class="cls-2" d="M40.46,14.4h.25l1.18,2.79,1.19-2.79h.24l-1.33,3h-.2Z"/><path class="cls-2" d="M44,14.4h2.15v.21H44.22V15.8h1.73V16H44.22v1.21h2v.21H44Z"/><path class="cls-2" d="M46.88,14.4h.22v2.82h1.78v.21h-2Z"/><path class="cls-2" d="M49.22,15.92h0a1.52,1.52,0,1,1,3,0h0a1.52,1.52,0,1,1-3,0Zm2.81,0h0a1.31,1.31,0,0,0-1.29-1.36,1.3,1.3,0,0,0-1.28,1.35h0a1.31,1.31,0,0,0,1.29,1.36A1.3,1.3,0,0,0,52,15.92Z"/><path class="cls-2" d="M53.09,14.4h1.1c.67,0,1.12.34,1.12.93h0c0,.64-.55,1-1.18,1h-.82v1.13h-.22Zm1.05,1.69c.56,0,.94-.29.94-.74h0c0-.48-.37-.73-.92-.73h-.86v1.48Z"/><path class="cls-2" d="M56,14.4h.21l1.21,1.79,1.22-1.79h.21v3h-.22V14.8l-1.2,1.74h0l-1.2-1.74v2.63H56Z"/><path class="cls-2" d="M59.84,14.4H62v.21H60.07V15.8H61.8V16H60.07v1.21H62v.21H59.84Z"/><path class="cls-2" d="M62.73,14.4h.21L65,17V14.4h.22v3h-.17l-2.13-2.69v2.69h-.22Z"/><path class="cls-2" d="M67,14.61H65.94V14.4h2.33v.21H67.22v2.82H67Z"/></svg>