<svg id="Layer_1" data-name="Layer 1" xmlns="http://www.w3.org/2000/svg" viewBox="0 0 480 120"><defs><style>.cls-1{fill:#ec2128;}.cls-2{fill:#010101;}</style></defs><title>RUNWAY Logo</title><path class="cls-1" d="M120.54,84.6c-3.87,0-6.85-.89-8.94-3.08s-3.18-5.06-3.18-10.33V65.14c0-7.15-1.29-10.43-3.67-13-2.28-2.28-5.56-3.48-10.82-3.48h-8V82.52H96.21v.89H64.83v-.89H75.16V16.19H64.83V15.3H76.55c6.35,0,12.21-.3,16.88-.3,7.25,0,15.19.89,20.45,6a15,15,0,0,1,5.06,11.32c0,9.73-9.63,15.29-20.85,15.79v.1c7.55.2,12.51,2.38,15.59,5.36,3.77,3.57,5.66,6.85,5.66,15.39v3.77c0,5.07.1,10.33,4.47,10.33a6.62,6.62,0,0,0,4.57-2.19l.6.6A11.24,11.24,0,0,1,120.54,84.6ZM93.43,15.79c-2.38,0-7.55.1-7.55.1V47.77h7.45c6.26,0,9.13-1.29,11.32-3.67,2.48-2.68,3.77-6.75,3.77-12.12C108.42,20.76,104.85,15.79,93.43,15.79Z"/><path class="cls-1" d="M177.18,15.89V58.53c0,9-1.29,16.76-7.44,21.42-3.47,2.68-8.82,4.66-16.36,4.66-6.45,0-14-1.39-18.64-6.24s-5.95-10.51-5.95-20.62V15.89H118.48V15h31.33v.89H139.5v46.8c0,8.72,1,14.28,4.36,17.65,2.18,2.08,5.26,3.27,9.72,3.27,7,0,11.9-1.78,15.07-4.17,5.65-4.26,7.44-10.61,7.44-20.52V31.46c0-7-1.09-10-3.37-12.29-2.08-2.08-4.86-3.27-9.42-3.27h-.79V15h25v.89Z"/><path class="cls-1" d="M234.26,15.89V84.51l-.3.1L190.3,19.55c-.89-1.29-2.18-3.66-2.18-3.66H188s.2,2.47.2,4V67.77c0,5.55,1.09,8.52,3.46,11,2.08,2.08,4.75,3.27,9.41,3.27h1.78v.89h-26V82h10.3V15.89h-10.3V15H200.7l30.69,46.44c.89,1.39,1.88,3.07,1.88,3.07h.1s-.1-1.59-.1-3V29.36c0-4.85-1.09-8.12-3.37-10.4-1.88-1.88-4.65-3.07-9-3.07h-.79V15h24.46v.89Z"/><path class="cls-1" d="M332,15.89,306.69,84.61h-.4L288.08,34.7l-18.42,49.9h-.4L244.12,15.89H236.5V15h29.21v.89H254.91l17.43,47.43a63.39,63.39,0,0,1,2,6h.1s1-2.87,2-5.64l11.19-30.3-6.44-17.53h-7.62V15h29.21v.89H292l17.33,47.43a63.22,63.22,0,0,1,2,6h.1s1-2.77,2.08-5.64l11.18-30.59c1.29-3.47,2.08-5.94,2.08-8.71a8.88,8.88,0,0,0-2.18-6.24,7.84,7.84,0,0,0-6-2.28h-4.85V15h26.34v.89Z"/><path class="cls-1" d="M347.89,84.6v-.9h10.77L349.29,58h-20l-3.19,8.38c-1.29,3.49-2.09,6-2.09,8.77a8.6,8.6,0,0,0,2.29,6.28,7.81,7.81,0,0,0,6,2.29h5v.9H310.6v-.9h8.08L344.1,15h.4l25.13,68.71h8.08v.9Zm-6.58-48.16c-1.2-3.39-2-6.08-2-6.08h-.1s-.8,2.5-2,5.69l-7.68,21h19.35Z"/><path class="cls-1" d="M408.47,15.92l-18,37.24V83.7h10.55v.91H368.9V83.7h10.66V55L359.67,15.92h-7.41V15h28.41v.91h-9L389.9,52.24v-.1l11.26-23c1.22-2.44,2.33-5.58,2.33-7.51,0-3.86-2.44-5.68-7-5.68h-1.62V15h20.29v.91Z"/><path class="cls-2" d="M68.7,88.66h6.75A6.33,6.33,0,0,1,80,90.24a4.24,4.24,0,0,1,1.22,3v0c0,2.68-2,4.22-4.71,4.59l5.3,6.86H80.27l-5.12-6.66H69.89v6.66H68.7ZM75.31,97C78,97,80,95.64,80,93.32v0c0-2.16-1.7-3.51-4.61-3.51H69.89V97Z"/><path class="cls-2" d="M85.6,88.66H97v1.1H86.79v6.31H96v1.1h-9.2v6.45H97.14v1.1H85.6Z"/><path class="cls-2" d="M100,102.38l.78-.9a7.8,7.8,0,0,0,5.76,2.39c2.41,0,4.06-1.35,4.06-3.19v0c0-1.7-.9-2.69-4.54-3.42-3.86-.78-5.42-2.09-5.42-4.52v0c0-2.39,2.18-4.22,5.16-4.22a8,8,0,0,1,5.51,2l-.76.94a6.92,6.92,0,0,0-4.8-1.82c-2.36,0-3.92,1.36-3.92,3v0c0,1.7.87,2.73,4.68,3.51s5.28,2.09,5.28,4.43v0c0,2.59-2.23,4.38-5.33,4.38A9.14,9.14,0,0,1,100,102.38Z"/><path class="cls-2" d="M115.94,88.66h11.43v1.1H117.14v6.31h9.2v1.1h-9.2v6.45h10.35v1.1H115.94Z"/><path class="cls-2" d="M138.07,88.54h1.15l7.48,16.18h-1.31l-2-4.5h-9.48l-2,4.5h-1.24Zm4.77,10.61-4.22-9.3-4.25,9.3Z"/><path class="cls-2" d="M150.28,88.66H157a6.34,6.34,0,0,1,4.52,1.58,4.24,4.24,0,0,1,1.22,3v0c0,2.68-2,4.22-4.71,4.59l5.3,6.86h-1.52l-5.12-6.66h-5.26v6.66h-1.19ZM156.89,97c2.68,0,4.68-1.36,4.68-3.67v0c0-2.16-1.7-3.51-4.61-3.51h-5.49V97Z"/><path class="cls-2" d="M166.18,96.74v0a8.08,8.08,0,0,1,8-8.31A8.48,8.48,0,0,1,180.46,91l-.85.87a7.37,7.37,0,0,0-5.42-2.36,6.87,6.87,0,0,0-6.77,7.18v0a6.93,6.93,0,0,0,6.79,7.23,7.36,7.36,0,0,0,5.53-2.5l.8.78a8.47,8.47,0,0,1-6.38,2.8A8,8,0,0,1,166.18,96.74Z"/><path class="cls-2" d="M184.19,88.66h1.19V96.1h10.28V88.66h1.19v16.07h-1.19V97.2H185.38v7.53h-1.19Z"/><path class="cls-1" d="M213.26,97.2h-5V96.1h5V91.16h1.15V96.1h5v1.1h-5v4.94h-1.15Z"/><path class="cls-2" d="M230.81,88.66h5.35c5,0,8.54,3.47,8.54,8v0c0,4.52-3.49,8-8.54,8h-5.35Zm5.35,15c4.48,0,7.3-3.05,7.3-6.88v0c0-3.81-2.82-6.93-7.3-6.93H232v13.86Z"/><path class="cls-2" d="M249.07,88.66H260.5v1.1H250.26v6.31h9.2v1.1h-9.2v6.45h10.35v1.1H249.07Z"/><path class="cls-2" d="M263.66,88.66H265l6.29,14.78,6.31-14.78h1.26l-7.07,16.18h-1.06Z"/><path class="cls-2" d="M282.42,88.66h11.43v1.1H283.61v6.31h9.2v1.1h-9.2v6.45H294v1.1H282.42Z"/><path class="cls-2" d="M297.74,88.66h1.19v15h9.43v1.1H297.74Z"/><path class="cls-2" d="M310.16,96.74v0a8.08,8.08,0,1,1,16.16,0v0a8.08,8.08,0,1,1-16.16,0Zm14.92,0v0a7,7,0,0,0-6.86-7.23,6.88,6.88,0,0,0-6.82,7.18v0a7,7,0,0,0,6.86,7.23A6.88,6.88,0,0,0,325.08,96.74Z"/><path class="cls-2" d="M330.74,88.66h5.83c3.53,0,6,1.82,6,4.91v0c0,3.37-2.91,5.12-6.27,5.12h-4.34v6h-1.19Zm5.6,9c3,0,5-1.56,5-3.95v0c0-2.55-2-3.88-4.87-3.88h-4.54v7.87Z"/><path class="cls-2" d="M346.17,88.66h1.12l6.45,9.5,6.45-9.5h1.13v16.07h-1.19v-14L353.76,100h-.09l-6.36-9.25v14h-1.15Z"/><path class="cls-2" d="M366.55,88.66H378v1.1H367.74v6.31h9.2v1.1h-9.2v6.45h10.35v1.1H366.55Z"/><path class="cls-2" d="M381.87,88.66H383l11.09,14v-14h1.15v16.07h-.9L383,90.45v14.28h-1.15Z"/><path class="cls-2" d="M404.51,89.76h-5.6v-1.1H411.3v1.1h-5.6v15h-1.2Z"/></svg>