<svg id="Layer_1" data-name="Layer 1" xmlns="http://www.w3.org/2000/svg" xmlns:xlink="http://www.w3.org/1999/xlink" viewBox="0 0 1200 400"><defs><style>.cls-1{fill:none;}.cls-2{clip-path:url(#clip-path);}.cls-3{fill:#231f20;}.cls-4{fill:#b89f80;}</style><clipPath id="clip-path"><rect id="SVGID" class="cls-1" x="60" y="20" width="1080" height="360"/></clipPath></defs><title>The Luxury Network logo</title><g class="cls-2"><path class="cls-3" d="M202.69,371.4a10.39,10.39,0,0,1-3.83-8.47,10.92,10.92,0,0,1,3.53-7.79c1.91-1.7,4.76-3.05,9.59-3.05a31.81,31.81,0,0,1,4.57.33,26.41,26.41,0,0,0,3.22.44c.31,0,.39.13.39.3s-.07.57-.14,1.61,0,2.51-.07,2.92-.17.61-.35.61-.25-.2-.25-.61a3.65,3.65,0,0,0-1.32-2.86,10.77,10.77,0,0,0-6.19-1.57c-4,0-6,1-7.07,2-2.33,2-2.83,4.57-2.83,7.46,0,5.47,4.61,10.34,11.33,10.34,2.36,0,3.93-.16,5.18-1.34a5.25,5.25,0,0,0,1.22-2.39c.07-.31.11-.41.32-.41s.29.21.29.41a26.41,26.41,0,0,1-.75,3.66c-.18.54-.25.64-.79.83a19.22,19.22,0,0,1-5.68.65c-4.72,0-7.9-1-10.37-3.06"/><path class="cls-3" d="M234.91,360.76c0-4.44,0-5.24-.08-6.15s-.24-1.45-1.29-1.58a8.61,8.61,0,0,0-1.07-.08.28.28,0,0,1-.24-.22c0-.18.14-.25.5-.25,1.42,0,3.55.07,3.72.07.33,0,3-.07,3.94-.07,2,0,4.22.17,5.85,1.24a4.94,4.94,0,0,1,2.19,3.91c0,2.11-.93,4.15-3.86,6.5,2.58,3,4.75,5.61,6.58,7.39,1.68,1.63,2.71,1.91,3.5,2a6,6,0,0,0,1.11.1.26.26,0,0,1,.29.23c0,.16-.17.23-.75.23h-2a6.7,6.7,0,0,1-3.37-.57c-1.36-.67-2.51-2.06-4.28-4.2-1.33-1.54-2.73-3.4-3.4-4.17a.53.53,0,0,0-.44-.17l-4-.07c-.14,0-.22.07-.22.23v.67c0,2.76,0,5,.14,6.15.11.85.29,1.39,1.26,1.51a12.93,12.93,0,0,0,1.39.14c.22,0,.25.13.25.23s-.14.23-.5.23c-1.71,0-3.72-.09-3.86-.09s-2.15.09-3.11.09c-.33,0-.5-.07-.5-.23a.23.23,0,0,1,.25-.23,5.15,5.15,0,0,0,1-.14c.61-.13.68-.67.82-1.51a55.43,55.43,0,0,0,.18-6.19v-5m2.71,2.42a.45.45,0,0,0,.22.37,11.5,11.5,0,0,0,3.46.43,4.2,4.2,0,0,0,2.36-.51c1.08-.66,1.9-2.18,1.9-4.35,0-3.57-2.08-5.61-5.44-5.61a15.33,15.33,0,0,0-2.25.16.37.37,0,0,0-.25.33Z"/><path class="cls-3" d="M266.08,360.76c0-4.44,0-5.24-.07-6.15s-.25-1.45-1.28-1.58a9,9,0,0,0-1.09-.08.28.28,0,0,1-.24-.22c0-.18.14-.25.49-.25,1.43,0,3.47.07,3.65.07s6.8,0,7.51,0,1.18-.13,1.43-.17a2.59,2.59,0,0,1,.43-.13c.1,0,.14.13.14.25s-.17.55-.24,1.35c0,.27-.12,1.55-.19,1.87,0,.14-.14.31-.28.31s-.25-.13-.25-.38a3.15,3.15,0,0,0-.17-1c-.22-.47-.54-.67-2.26-.87-.53-.07-4.18-.1-4.53-.1-.15,0-.19.1-.19.3v7.77c0,.2,0,.3.19.3.39,0,4.53,0,5.26-.07s1.21-.09,1.54-.4.36-.37.47-.37.17.07.17.23-.17.65-.25,1.59c-.07.57-.15,1.65-.15,1.86s-.07.53-.28.53-.22-.1-.22-.27a2.31,2.31,0,0,0-.15-.94c-.1-.4-.39-.75-1.61-.88-.86-.09-4.22-.12-4.74-.12-.19,0-.22.09-.22.19v2.38c0,1,0,4.31,0,4.88.07,1.92.65,2.28,3.76,2.28a11.51,11.51,0,0,0,3.15-.29,2.19,2.19,0,0,0,1.43-2c.07-.33.14-.43.32-.43s.22.23.22.43a23.38,23.38,0,0,1-.43,2.77c-.22.73-.54.73-1.75.73-2.36,0-4.19-.07-5.47-.1S268,374,267.54,374c-.06,0-.68,0-1.36,0s-1.32.07-1.82.07c-.32,0-.5-.07-.5-.23a.24.24,0,0,1,.25-.23,8.8,8.8,0,0,0,1-.14c.61-.09.68-.67.82-1.51a54.48,54.48,0,0,0,.18-6.19v-5"/><path class="cls-3" d="M297.73,353.06c.39-1,.53-1.12.75-1.12s.43.42.75,1c.58,1.21,5.62,13,7.55,17.34,1.14,2.56,2,2.93,2.69,3.12a4.73,4.73,0,0,0,1.25.17c.18,0,.4.07.4.23s-.36.23-.71.23-2.8,0-5-.07c-.61,0-1.12,0-1.12-.21s.08-.12.22-.19a.52.52,0,0,0,.28-.77L302,366.29a.25.25,0,0,0-.28-.17h-7.25a.34.34,0,0,0-.33.24l-1.79,4.57a5.61,5.61,0,0,0-.45,1.93c0,.58.53.77,1.06.77h.29c.25,0,.32.1.32.23s-.18.23-.47.23c-.76,0-2.47-.09-2.83-.09s-1.89.09-3.18.09c-.4,0-.61-.07-.61-.23a.27.27,0,0,1,.28-.23c.22,0,.69,0,.93-.07,1.43-.16,2-1.17,2.65-2.62l7.4-17.87m3.5,11.89c.15,0,.15-.06.11-.2l-3.11-7.83c-.18-.44-.36-.44-.54,0l-2.93,7.83c0,.14,0,.2.11.2Z"/><path class="cls-3" d="M327,365.78c0,2.76,0,5,.14,6.19.11.85.25,1.39,1.21,1.51a13.86,13.86,0,0,0,1.43.14c.22,0,.25.13.25.23s-.15.23-.5.23c-1.72,0-3.72-.09-3.9-.09s-2.33.09-3.25.09c-.36,0-.5-.07-.5-.23s.06-.21.25-.21a4.77,4.77,0,0,0,.93-.13c.64-.13.82-.7.94-1.55.14-1.17.14-3.42.14-6.19v-12l-4.54.07c-2,0-2.71.23-3.19.91a5,5,0,0,0-.5.9c-.07.24-.17.27-.32.27a.23.23,0,0,1-.22-.22c0-.32.65-2.87.68-3.11s.22-.53.32-.53a12.21,12.21,0,0,0,1.39.33c.89.09,2.11.13,2.47.13h11.87a17.59,17.59,0,0,0,2.25-.13c.47-.06.76-.14.9-.14s.14.17.14.33c0,.89-.11,2.92-.11,3.26a.33.33,0,0,1-.29.37c-.14,0-.22-.1-.24-.51l0-.3c-.12-.87-.8-1.5-3.8-1.57l-3.93-.07v12"/><path class="cls-3" d="M351.93,365.78c0,2.76,0,5,.15,6.19.1.85.21,1.39,1.13,1.51.47.06,1.15.14,1.44.14a.24.24,0,0,1,.25.23c0,.14-.14.23-.5.23-1.75,0-3.79-.09-3.93-.09s-2.15.09-3.11.09c-.32,0-.51-.07-.51-.23a.23.23,0,0,1,.25-.23,5,5,0,0,0,1-.14c.6-.13.71-.67.82-1.51.14-1.17.18-3.42.18-6.19v-5c0-4.44,0-5.24-.07-6.15s-.33-1.41-1-1.55a5.55,5.55,0,0,0-1-.11.26.26,0,0,1-.25-.22c0-.18.14-.25.5-.25,1,0,3,.07,3.18.07s2.18-.07,3.14-.07c.35,0,.5.07.5.25a.3.3,0,0,1-.25.22,3.34,3.34,0,0,0-.79.08c-.85.17-1,.57-1.11,1.58s0,1.71,0,6.15v5"/><path class="cls-3" d="M370.74,370.19c.08,2.36.36,3.06,1.21,3.26a8.23,8.23,0,0,0,1.57.17.23.23,0,0,1,.25.23c0,.16-.21.23-.57.23-1.78,0-3-.09-3.32-.09s-1.61.09-3,.09c-.33,0-.5,0-.5-.23a.24.24,0,0,1,.24-.23,5.42,5.42,0,0,0,1.29-.17c.78-.2.9-1,.9-3.56V353.52c0-1.13.18-1.43.42-1.43s.9.56,1.23.86c.49.49,5.07,5,9.94,9.76,3.11,3,6.47,6.42,7.44,7.35l-.32-14.32c0-1.84-.21-2.48-1.18-2.65a10.18,10.18,0,0,0-1.55-.14.23.23,0,0,1-.24-.26c0-.18.24-.21.61-.21,1.42,0,2.94.07,3.29.07s1.39-.07,2.67-.07c.33,0,.58,0,.58.21a.34.34,0,0,1-.35.26,3.32,3.32,0,0,0-.76.08c-1,.2-1.11.77-1.11,2.49l-.08,16.73c0,1.89,0,2.06-.24,2.06s-.65-.24-2.4-1.75c-.32-.27-4.85-4.47-8.18-7.72-3.64-3.61-7.18-7.1-8.15-8.11l.35,13.48"/><path class="cls-3" d="M420.66,366.8c0-2.31-.07-2.66-1.36-2.88a9.49,9.49,0,0,0-1.07-.08.29.29,0,0,1-.25-.23c0-.21.14-.23.5-.23,1.43,0,3.54.06,3.72.06s2.11-.06,3.07-.06c.37,0,.51,0,.51.23a.29.29,0,0,1-.25.23,3.29,3.29,0,0,0-.8.08c-.86.13-1.1.57-1.17,1.57s0,1.76,0,3v3.18c0,1.31,0,1.35-.43,1.55a16.85,16.85,0,0,1-6.69,1.28c-2.4,0-6.87-.26-10.37-3.06a10.66,10.66,0,0,1-3.76-8.13,10.52,10.52,0,0,1,5.26-9.37,16.51,16.51,0,0,1,8.36-1.82,28.19,28.19,0,0,1,4.83.47,14.2,14.2,0,0,0,2.54.31c.32,0,.39.13.39.27a39.63,39.63,0,0,0-.18,4c0,.49-.15.61-.36.61s-.22-.17-.22-.44a4.13,4.13,0,0,0-.72-1.88c-.78-1.08-3.18-2.21-7.26-2.21a10.44,10.44,0,0,0-6.57,1.85c-1.82,1.31-3.1,3.86-3.1,7.18a11,11,0,0,0,3.32,7.9,11.65,11.65,0,0,0,8,3,8.27,8.27,0,0,0,3.39-.55c.41-.19.65-.33.65-.87V366.8"/><path class="cls-3" d="M457.31,360.76c0-4.44,0-5.24-.07-6.15s-.25-1.45-1.29-1.58a8.74,8.74,0,0,0-1.06-.08.29.29,0,0,1-.26-.22c0-.18.14-.25.5-.25,1.43,0,3.33.07,3.62.07s2.26-.07,3.19-.07c.35,0,.53.07.53.25s-.14.22-.3.22a3.33,3.33,0,0,0-.77.08c-.83.13-1,.63-1.08,1.58s-.09,1.71-.09,6.15v4c0,4.13,1,5.84,2.34,7a6.36,6.36,0,0,0,4.68,1.56,6.67,6.67,0,0,0,4.86-2c1.47-1.64,1.79-4,1.79-6.93v-3.58c0-4.44,0-5.24-.07-6.15s-.22-1.45-1.26-1.58a8.51,8.51,0,0,0-1.07-.08.26.26,0,0,1-.25-.22c0-.18.14-.25.5-.25,1.39,0,3.2.07,3.39.07s1.73-.07,2.65-.07c.36,0,.5.07.5.25a.26.26,0,0,1-.25.22,3.36,3.36,0,0,0-.78.08c-.86.17-1,.63-1.11,1.58s0,1.71,0,6.15v3.06c0,3.09-.41,6.54-2.93,8.57a10,10,0,0,1-6.58,2.08c-1,0-4.33-.06-6.55-2-1.54-1.35-2.75-3.33-2.75-7.5v-4.19"/><path class="cls-3" d="M493.57,370.19c.06,2.36.36,3.06,1.21,3.26a8.3,8.3,0,0,0,1.58.17.23.23,0,0,1,.24.23c0,.16-.21.23-.57.23-1.79,0-3-.09-3.32-.09s-1.61.09-3,.09c-.31,0-.49,0-.49-.23a.23.23,0,0,1,.24-.23,5.53,5.53,0,0,0,1.29-.17c.79-.2.89-1,.89-3.56V353.52c0-1.13.18-1.43.43-1.43s.9.56,1.21.86c.5.49,5.08,5,9.95,9.76,3.1,3,6.47,6.42,7.43,7.35l-.32-14.32c0-1.84-.22-2.48-1.18-2.65a10.22,10.22,0,0,0-1.54-.14.24.24,0,0,1-.26-.26c0-.18.26-.21.6-.21,1.44,0,2.94.07,3.3.07s1.39-.07,2.68-.07c.32,0,.57,0,.57.21a.33.33,0,0,1-.35.26,3.3,3.3,0,0,0-.76.08c-1,.2-1.11.77-1.11,2.49l-.07,16.73c0,1.89,0,2.06-.25,2.06s-.63-.24-2.39-1.75c-.32-.27-4.88-4.47-8.19-7.72-3.66-3.61-7.19-7.1-8.15-8.11l.36,13.48"/><path class="cls-3" d="M531.34,365.78c0,2.76,0,5,.13,6.19.1.85.22,1.39,1.14,1.51.46.06,1.16.14,1.42.14a.24.24,0,0,1,.26.23c0,.14-.13.23-.5.23-1.76,0-3.79-.09-3.94-.09s-2.15.09-3.1.09c-.32,0-.5-.07-.5-.23a.23.23,0,0,1,.25-.23,5.08,5.08,0,0,0,1-.14c.6-.13.7-.67.82-1.51.14-1.17.17-3.42.17-6.19v-5c0-4.44,0-5.24-.06-6.15s-.32-1.41-1-1.55a5.43,5.43,0,0,0-1-.11.26.26,0,0,1-.26-.22c0-.18.14-.25.5-.25,1,0,3,.07,3.17.07s2.18-.07,3.15-.07c.36,0,.5.07.5.25a.29.29,0,0,1-.25.22,3.24,3.24,0,0,0-.78.08c-.86.17-1,.57-1.12,1.58s0,1.71,0,6.15v5"/><path class="cls-3" d="M562.72,373.58a13.57,13.57,0,0,1-5,.88c-8.68,0-12.33-6.08-12.33-11.21,0-4.62,3.78-11.16,12.47-11.16,7.09,0,12.45,4.1,12.45,10.72a11.52,11.52,0,0,1-5.54,9.57l6.43,3c6.87,3.2,11.62,3.36,13.19,3.36a20.64,20.64,0,0,0,6.15-1.1,2.13,2.13,0,0,1,.47-.1c.11,0,.18.14.18.2a.32.32,0,0,1-.25.31,26.42,26.42,0,0,1-10,2c-3.83,0-8-1.16-13-3.76l-5.21-2.66m-4.16-.29c2.83,0,8.56-1.46,8.56-9.69,0-6.78-4.47-10.45-9.45-10.45-5.25,0-9,3.05-9,9.31C548.64,369.05,552.89,373.29,558.56,373.29Z"/><path class="cls-3" d="M583.53,360.76c0-4.44,0-5.24-.07-6.15s-.25-1.45-1.29-1.58a8.48,8.48,0,0,0-1.07-.08.29.29,0,0,1-.24-.22c0-.18.14-.25.49-.25,1.44,0,3.33.07,3.62.07s2.26-.07,3.19-.07c.35,0,.54.07.54.25s-.14.22-.3.22a3.36,3.36,0,0,0-.78.08c-.83.13-1,.63-1.07,1.58s-.08,1.71-.08,6.15v4c0,4.13,1,5.84,2.32,7a6.42,6.42,0,0,0,4.69,1.56,6.69,6.69,0,0,0,4.86-2c1.46-1.64,1.78-4,1.78-6.93v-3.58c0-4.44,0-5.24-.06-6.15s-.21-1.45-1.25-1.58a8.85,8.85,0,0,0-1.07-.08.25.25,0,0,1-.25-.22c0-.18.14-.25.49-.25,1.4,0,3.22.07,3.39.07s1.72-.07,2.66-.07c.36,0,.49.07.49.25a.25.25,0,0,1-.24.22,3.53,3.53,0,0,0-.8.08c-.85.17-1,.63-1.09,1.58s0,1.71,0,6.15v3.06c0,3.09-.44,6.54-2.94,8.57a10,10,0,0,1-6.58,2.08c-1,0-4.32-.06-6.54-2-1.53-1.35-2.75-3.33-2.75-7.5v-4.19"/><path class="cls-3" d="M618.47,360.76c0-4.44,0-5.24-.08-6.15s-.24-1.45-1.28-1.58a9,9,0,0,0-1.08-.08c-.11,0-.26-.13-.26-.22s.15-.25.51-.25c1.43,0,3.47.07,3.65.07s6.79,0,7.51,0,1.18-.13,1.42-.17a2.86,2.86,0,0,1,.44-.13c.1,0,.14.13.14.25a11.88,11.88,0,0,0-.24,1.35c0,.27-.11,1.55-.18,1.87,0,.14-.15.31-.28.31s-.25-.13-.25-.38a3.15,3.15,0,0,0-.19-1c-.21-.47-.53-.67-2.26-.87-.52-.07-4.18-.1-4.54-.1-.14,0-.18.1-.18.3v7.77c0,.2,0,.3.18.3.39,0,4.54,0,5.26-.07s1.2-.09,1.53-.4.37-.37.48-.37.16.07.16.23-.16.65-.25,1.59c-.06.57-.13,1.65-.13,1.86s-.07.53-.29.53-.22-.1-.22-.27a2.57,2.57,0,0,0-.13-.94c-.12-.4-.39-.75-1.63-.88-.84-.09-4.2-.12-4.74-.12-.18,0-.21.09-.21.19v2.38c0,1,0,4.31,0,4.88.08,1.92.65,2.28,3.76,2.28a11.45,11.45,0,0,0,3.13-.29,2.21,2.21,0,0,0,1.45-2c.06-.33.13-.43.31-.43s.22.23.22.43a21.53,21.53,0,0,1-.43,2.77c-.21.73-.53.73-1.75.73-2.36,0-4.18-.07-5.47-.1s-2.15-.07-2.61-.07c-.07,0-.68,0-1.36,0s-1.32.07-1.82.07c-.33,0-.51-.07-.51-.23a.24.24,0,0,1,.25-.23,8.8,8.8,0,0,0,1-.14c.62-.09.69-.67.83-1.51a53.52,53.52,0,0,0,.18-6.19v-5"/><path class="cls-3" d="M664.1,360.76c0-4.44,0-5.24-.08-6.15s-.23-1.45-1.29-1.58a8.75,8.75,0,0,0-1.07-.08.28.28,0,0,1-.26-.22c0-.18.14-.25.51-.25,1.44,0,3.38.07,3.64.07.67,0,3-.07,4.46-.07,4,0,5.47,1.18,6,1.62a4.72,4.72,0,0,1,1.58,3.43c0,4.1-3.3,6.81-8.14,6.81-.18,0-.69,0-.89,0a.34.34,0,0,1-.31-.28c0-.23.17-.31.82-.31,3.4,0,5.81-2,5.81-4.61a5.43,5.43,0,0,0-6-5.7,12.8,12.8,0,0,0-1.75.19c-.18,0-.26.24-.26.54v11.62c0,2.76,0,5,.14,6.19.12.85.29,1.39,1.26,1.51a13.22,13.22,0,0,0,1.39.14.23.23,0,0,1,.24.23c0,.14-.14.23-.51.23-1.7,0-3.78-.09-3.93-.09s-2.13.09-3.1.09c-.34,0-.51-.07-.51-.23a.24.24,0,0,1,.25-.23,4.91,4.91,0,0,0,1-.14c.6-.13.69-.67.82-1.51a52.59,52.59,0,0,0,.19-6.19v-5"/><path class="cls-3" d="M695.52,353.06c.4-1,.54-1.12.75-1.12s.43.42.76,1c.57,1.21,5.62,13,7.54,17.34,1.14,2.56,2,2.93,2.69,3.12a4.78,4.78,0,0,0,1.25.17c.18,0,.39.07.39.23s-.34.23-.7.23-2.8,0-5-.07c-.59,0-1.12,0-1.12-.21s.08-.12.22-.19a.53.53,0,0,0,.3-.77l-2.84-6.56c-.06-.13-.1-.17-.28-.17h-7.27a.31.31,0,0,0-.31.24l-1.8,4.57a5.83,5.83,0,0,0-.47,1.93c0,.58.54.77,1.09.77H691c.24,0,.32.1.32.23s-.19.23-.47.23c-.75,0-2.47-.09-2.83-.09s-1.88.09-3.18.09c-.39,0-.61-.07-.61-.23a.28.28,0,0,1,.29-.23c.22,0,.69,0,.93-.07,1.42-.16,2-1.17,2.65-2.62l7.4-17.87M699,365c.14,0,.14-.06.11-.2L696,356.92c-.18-.44-.36-.44-.54,0l-2.94,7.83c0,.14,0,.2.11.2Z"/><path class="cls-3" d="M720.19,360.76c0-4.44,0-5.24-.07-6.15s-.25-1.45-1.29-1.58a8.56,8.56,0,0,0-1.07-.08.29.29,0,0,1-.25-.22c0-.18.14-.25.5-.25,1.42,0,3.54.07,3.72.07s3-.07,3.93-.07c2,0,4.22.17,5.86,1.24a4.92,4.92,0,0,1,2.19,3.91c0,2.11-.94,4.15-3.86,6.5,2.57,3,4.76,5.61,6.58,7.39s2.72,1.91,3.5,2a6,6,0,0,0,1.11.1.27.27,0,0,1,.29.23c0,.16-.18.23-.75.23h-2a6.71,6.71,0,0,1-3.37-.57c-1.35-.67-2.49-2.06-4.28-4.2-1.32-1.54-2.73-3.4-3.4-4.17a.53.53,0,0,0-.44-.17l-4-.07c-.15,0-.22.07-.22.23v.67c0,2.76,0,5,.14,6.15.11.85.28,1.39,1.24,1.51a13.32,13.32,0,0,0,1.41.14.21.21,0,0,1,.24.23c0,.14-.14.23-.49.23-1.73,0-3.73-.09-3.88-.09s-2.15.09-3.1.09c-.33,0-.5-.07-.5-.23a.23.23,0,0,1,.24-.23,5.12,5.12,0,0,0,1-.14c.61-.13.67-.67.82-1.51a53.52,53.52,0,0,0,.18-6.19v-5m2.72,2.42a.42.42,0,0,0,.22.37,11.37,11.37,0,0,0,3.46.43,4.24,4.24,0,0,0,2.38-.51c1.06-.66,1.89-2.18,1.89-4.35,0-3.57-2.08-5.61-5.44-5.61a14.91,14.91,0,0,0-2.25.16.38.38,0,0,0-.25.33Z"/><path class="cls-3" d="M756.59,365.78c0,2.76,0,5,.14,6.19.11.85.26,1.39,1.21,1.51a14,14,0,0,0,1.44.14c.21,0,.26.13.26.23s-.15.23-.51.23c-1.71,0-3.71-.09-3.9-.09s-2.32.09-3.25.09c-.35,0-.5-.07-.5-.23s.07-.21.25-.21a4.94,4.94,0,0,0,.94-.13c.65-.13.81-.7.93-1.55.14-1.17.14-3.42.14-6.19v-12l-4.54.07c-2,0-2.73.23-3.19.91a4.84,4.84,0,0,0-.5.9c-.08.24-.17.27-.32.27a.22.22,0,0,1-.21-.22c0-.32.63-2.87.67-3.11s.22-.53.32-.53a11.74,11.74,0,0,0,1.39.33c.89.09,2.11.13,2.48.13h11.87a17.49,17.49,0,0,0,2.24-.13c.49-.06.77-.14.9-.14s.14.17.14.33c0,.89-.1,2.92-.1,3.26s-.15.37-.28.37-.22-.1-.25-.51l0-.3c-.1-.87-.78-1.5-3.78-1.57l-3.94-.07v12"/><path class="cls-3" d="M780,370.19c.07,2.36.36,3.06,1.22,3.26a8.11,8.11,0,0,0,1.57.17.24.24,0,0,1,.26.23c0,.16-.22.23-.58.23-1.78,0-3-.09-3.33-.09s-1.6.09-3.05.09c-.31,0-.49,0-.49-.23a.24.24,0,0,1,.26-.23,5.52,5.52,0,0,0,1.28-.17c.79-.2.9-1,.9-3.56V353.52c0-1.13.18-1.43.43-1.43s.88.56,1.21.86c.5.49,5.09,5,9.94,9.76,3.11,3,6.48,6.42,7.44,7.35l-.32-14.32c0-1.84-.21-2.48-1.17-2.65a10.5,10.5,0,0,0-1.54-.14.23.23,0,0,1-.26-.26c0-.18.26-.21.61-.21,1.44,0,2.92.07,3.29.07s1.41-.07,2.67-.07c.31,0,.57,0,.57.21a.33.33,0,0,1-.35.26,3.3,3.3,0,0,0-.75.08c-1,.2-1.1.77-1.1,2.49l-.08,16.73c0,1.89,0,2.06-.25,2.06s-.64-.24-2.39-1.75c-.33-.27-4.86-4.47-8.19-7.72-3.65-3.61-7.18-7.1-8.14-8.11l.35,13.48"/><path class="cls-3" d="M814.91,360.76c0-4.44,0-5.24-.08-6.15s-.24-1.45-1.28-1.58a9,9,0,0,0-1.09-.08c-.1,0-.25-.13-.25-.22s.15-.25.51-.25c1.43,0,3.46.07,3.64.07s6.8,0,7.52,0,1.17-.13,1.42-.17a2.86,2.86,0,0,1,.44-.13c.08,0,.14.13.14.25s-.18.55-.25,1.35c0,.27-.11,1.55-.18,1.87,0,.14-.15.31-.29.31s-.25-.13-.25-.38a2.89,2.89,0,0,0-.19-1c-.22-.47-.54-.67-2.26-.87-.52-.07-4.18-.1-4.53-.1-.16,0-.18.1-.18.3v7.77c0,.2,0,.3.18.3.38,0,4.53,0,5.26-.07s1.21-.09,1.53-.4.36-.37.47-.37.18.07.18.23-.18.65-.25,1.59c-.07.57-.13,1.65-.13,1.86s-.07.53-.28.53-.24-.1-.24-.27a2.58,2.58,0,0,0-.13-.94c-.1-.4-.39-.75-1.61-.88-.87-.09-4.21-.12-4.74-.12-.2,0-.22.09-.22.19v2.38c0,1,0,4.31,0,4.88.08,1.92.64,2.28,3.75,2.28a11.46,11.46,0,0,0,3.14-.29,2.19,2.19,0,0,0,1.43-2c.08-.33.15-.43.32-.43s.22.23.22.43a19,19,0,0,1-.43,2.77c-.22.73-.53.73-1.76.73-2.35,0-4.17-.07-5.46-.1s-2.15-.07-2.62-.07c-.07,0-.67,0-1.34,0s-1.33.07-1.84.07c-.32,0-.5-.07-.5-.23a.24.24,0,0,1,.24-.23,9.27,9.27,0,0,0,1-.14c.61-.09.68-.67.83-1.51a58.6,58.6,0,0,0,.17-6.19v-5"/><path class="cls-3" d="M841.77,360.76c0-4.44,0-5.24-.07-6.15s-.24-1.45-1.28-1.58a8.89,8.89,0,0,0-1.09-.08.28.28,0,0,1-.23-.22c0-.18.13-.25.49-.25,1.43,0,3.55.07,3.71.07.33,0,3-.07,3.94-.07,2,0,4.22.17,5.87,1.24a5,5,0,0,1,2.17,3.91c0,2.11-.91,4.15-3.86,6.5,2.59,3,4.76,5.61,6.58,7.39s2.72,1.91,3.51,2a6,6,0,0,0,1.11.1.26.26,0,0,1,.28.23c0,.16-.18.23-.76.23h-2a6.63,6.63,0,0,1-3.36-.57c-1.37-.67-2.51-2.06-4.3-4.2-1.31-1.54-2.71-3.4-3.39-4.17a.46.46,0,0,0-.41-.17l-4-.07c-.14,0-.21.07-.21.23v.67c0,2.76,0,5,.15,6.15.08.85.29,1.39,1.22,1.51a13.64,13.64,0,0,0,1.4.14c.23,0,.26.13.26.23s-.15.23-.5.23c-1.7,0-3.73-.09-3.86-.09s-2.15.09-3.11.09c-.31,0-.51-.07-.51-.23a.23.23,0,0,1,.25-.23,5.32,5.32,0,0,0,1-.14c.59-.13.67-.67.81-1.51a56.47,56.47,0,0,0,.17-6.19v-5m2.72,2.42a.44.44,0,0,0,.21.37,11.48,11.48,0,0,0,3.46.43,4.2,4.2,0,0,0,2.37-.51c1.06-.66,1.88-2.18,1.88-4.35,0-3.57-2.06-5.61-5.43-5.61a15.46,15.46,0,0,0-2.26.16.37.37,0,0,0-.23.33Z"/><path class="cls-3" d="M870,373.69c-.42-.21-.47-.3-.47-1.09,0-1.41.15-2.55.18-3,0-.31.07-.47.25-.47s.29.1.29.33a3.77,3.77,0,0,0,.12,1c.5,2.09,2.85,2.83,4.95,2.83,3.13,0,4.75-1.66,4.75-3.8s-1.2-3-4-5l-1.42-1c-3.41-2.39-4.5-4.14-4.5-6.12,0-3.36,2.83-5.37,7-5.37a16.08,16.08,0,0,1,3.27.33,4.51,4.51,0,0,0,1.11.13c.27,0,.31,0,.31.22s-.12,1.06-.12,3c0,.44,0,.65-.27.65s-.25-.14-.28-.37a5,5,0,0,0-.47-1.41c-.22-.33-1.24-1.41-4.08-1.41-2.28,0-4.18,1.08-4.18,3.09,0,1.82,1,2.85,4.09,4.84l.89.57c3.82,2.45,5.13,4.43,5.13,6.89a5.48,5.48,0,0,1-2.91,4.86,10.16,10.16,0,0,1-5,1,12.34,12.34,0,0,1-4.58-.77"/><path class="cls-3" d="M917,365.78c0,2.76,0,5,.15,6.19.12.85.2,1.39,1.16,1.51.43.06,1.14.14,1.4.14s.29.13.29.23-.18.23-.54.23c-1.72,0-3.72-.09-3.9-.09s-2.19.09-3.11.09c-.37,0-.5-.07-.5-.23a.23.23,0,0,1,.26-.23,4.71,4.71,0,0,0,.92-.14c.66-.13.76-.71.88-1.55.13-1.18.13-3.32.13-6.08V363c0-.13-.08-.16-.19-.16H900.84c-.12,0-.19,0-.19.16v2.86c0,2.75,0,4.94.15,6.11.12.85.22,1.39,1.15,1.51.46.06,1.13.14,1.42.14a.24.24,0,0,1,.26.23c0,.14-.16.23-.49.23-1.76,0-3.76-.09-3.91-.09s-2.18.09-3.14.09c-.31,0-.52-.07-.52-.23a.24.24,0,0,1,.26-.23,5,5,0,0,0,1-.14c.62-.13.7-.67.82-1.51a52.63,52.63,0,0,0,.19-6.19v-5c0-4.44,0-5.24-.08-6.15s-.23-1.45-1.27-1.58a9.21,9.21,0,0,0-1.09-.08.28.28,0,0,1-.23-.22c0-.18.14-.25.5-.25,1.42,0,3.43.07,3.6.07s2.15-.07,3.11-.07c.37,0,.5.07.5.25a.28.28,0,0,1-.25.22,3.18,3.18,0,0,0-.78.08c-.86.17-1,.57-1.1,1.58s0,1.78,0,6.21v.6c0,.17.07.17.19.17H914c.12,0,.19,0,.19-.17v-.6c0-4.43,0-5.3-.08-6.21s-.21-1.45-1.25-1.58a8.87,8.87,0,0,0-1.09-.08.25.25,0,0,1-.24-.22c0-.18.14-.25.5-.25,1.39,0,3.44.07,3.58.07s2.17-.07,3.11-.07c.36,0,.54.07.54.25s-.14.22-.3.22a3.49,3.49,0,0,0-.79.08c-.82.17-1,.57-1.06,1.58s-.06,1.71-.06,6.15v5"/><path class="cls-3" d="M937.38,365.78c0,2.76,0,5,.14,6.19.12.85.21,1.39,1.15,1.51.47.06,1.15.14,1.45.14a.23.23,0,0,1,.23.23c0,.14-.15.23-.49.23-1.76,0-3.81-.09-4-.09s-2.14.09-3.09.09c-.35,0-.51-.07-.51-.23a.23.23,0,0,1,.23-.23,5.39,5.39,0,0,0,1-.14c.6-.13.72-.67.81-1.51.15-1.17.18-3.42.18-6.19v-5c0-4.44,0-5.24-.06-6.15s-.33-1.41-1-1.55a5.52,5.52,0,0,0-1-.11.24.24,0,0,1-.22-.22c0-.18.14-.25.5-.25,1,0,3,.07,3.17.07s2.19-.07,3.17-.07c.35,0,.5.07.5.25s-.15.22-.27.22a3.23,3.23,0,0,0-.78.08c-.87.17-1,.57-1.1,1.58s0,1.71,0,6.15v5"/><path class="cls-3" d="M954.87,360.76c0-4.44,0-5.24-.08-6.15s-.25-1.45-1.29-1.58a8.2,8.2,0,0,0-1.06-.08.29.29,0,0,1-.26-.22c0-.18.14-.25.5-.25,1.43,0,3.41.07,3.65.07.67,0,3-.07,4.46-.07,4,0,5.49,1.18,6,1.62a4.68,4.68,0,0,1,1.57,3.43c0,4.1-3.29,6.81-8.12,6.81-.17,0-.72,0-.89,0a.34.34,0,0,1-.31-.28c0-.23.17-.31.82-.31,3.39,0,5.83-2,5.83-4.61a5.44,5.44,0,0,0-6-5.7,12.83,12.83,0,0,0-1.75.19c-.18,0-.26.24-.26.54v11.62c0,2.76,0,5,.15,6.19.11.85.28,1.39,1.25,1.51a12.79,12.79,0,0,0,1.37.14.24.24,0,0,1,.27.23c0,.14-.14.23-.52.23-1.7,0-3.78-.09-3.93-.09s-2.14.09-3.1.09c-.33,0-.52-.07-.52-.23a.25.25,0,0,1,.27-.23,5.13,5.13,0,0,0,1-.14c.61-.13.68-.67.83-1.51a55.48,55.48,0,0,0,.18-6.19v-5"/><path class="cls-3" d="M980.5,373.69c-.43-.21-.47-.3-.47-1.09,0-1.41.15-2.55.18-3,0-.31.07-.47.27-.47s.29.1.29.33a4.64,4.64,0,0,0,.09,1c.5,2.09,2.85,2.83,5,2.83,3.09,0,4.71-1.66,4.71-3.8s-1.19-3-4-5l-1.42-1c-3.39-2.39-4.51-4.14-4.51-6.12,0-3.36,2.82-5.37,7-5.37a16.25,16.25,0,0,1,3.28.33,4.33,4.33,0,0,0,1.1.13c.25,0,.31,0,.31.22a26.49,26.49,0,0,0-.15,3c0,.44,0,.65-.23.65s-.27-.14-.29-.37a4.53,4.53,0,0,0-.48-1.41c-.19-.33-1.24-1.41-4.05-1.41-2.3,0-4.21,1.08-4.21,3.09,0,1.82,1,2.85,4.08,4.84l.9.57c3.83,2.45,5.16,4.43,5.16,6.89a5.52,5.52,0,0,1-2.93,4.86,10.2,10.2,0,0,1-5,1,12.36,12.36,0,0,1-4.59-.77"/><path class="cls-3" d="M93.16,283.94c0,8.17,0,14.9.45,18.48.27,2.46.82,4.34,3.53,4.68,1.27.17,3.26.34,4.08.34.54,0,.72.26.72.51,0,.43-.45.68-1.44.68-5,0-10.69-.25-11.14-.25s-6.15.25-8.88.25c-1,0-1.45-.17-1.45-.68,0-.25.18-.51.72-.51a14.8,14.8,0,0,0,2.72-.34c1.82-.34,2.27-2.22,2.62-4.68.46-3.58.46-10.31.46-18.48v-36l-13.4.17c-5.61.09-7.78.68-9.23,2.73a14.48,14.48,0,0,0-1.55,2.64c-.27.67-.54.85-.91.85s-.45-.26-.45-.77c0-.85,1.81-8.17,2-8.85.18-.51.55-1.6.91-1.6.62,0,1.53.85,4,1,2.62.25,6.07.43,7.15.43h34a38.38,38.38,0,0,0,6.43-.43c1.37-.17,2.18-.43,2.54-.43s.46.51.46,1c0,2.56-.28,8.44-.28,9.37,0,.77-.26,1.1-.62,1.1s-.64-.26-.72-1.46l-.09-.93c-.27-2.55-2.44-4.51-11.14-4.68l-11.41-.17v36"/><path class="cls-3" d="M181.2,287.6c0,7,.09,12.69.45,15.66.28,2.13.46,3.49,2.92,3.83a32.67,32.67,0,0,0,3.51.34c.56,0,.74.34.74.59s-.46.6-1.36.6c-4.34,0-9.42-.25-9.87-.25s-5.53.25-7.88.25c-.91,0-1.27-.17-1.27-.6a.6.6,0,0,1,.64-.59,11.26,11.26,0,0,0,2.35-.34c1.63-.34,1.9-1.79,2.17-3.91.36-3,.36-8.42.36-15.4v-7.24c0-.35-.19-.44-.45-.44H140.26c-.27,0-.45.08-.45.44v7.24c0,7,0,12.51.37,15.49.26,2.13.53,3.49,2.89,3.83a34.48,34.48,0,0,0,3.63.34.59.59,0,0,1,.63.59c0,.35-.36.6-1.26.6-4.44,0-9.5-.25-9.87-.25s-5.53.25-8,.25c-.83,0-1.27-.17-1.27-.6a.59.59,0,0,1,.63-.59,12.07,12.07,0,0,0,2.45-.34c1.53-.34,1.72-1.7,2.08-3.83.45-3,.45-8.68.45-15.66V274.83c0-11.24,0-13.28-.18-15.57-.18-2.47-.63-3.65-3.25-4-.64-.08-2-.16-2.72-.16a.76.76,0,0,1-.63-.6c0-.43.37-.59,1.27-.59,3.63,0,8.7.17,9.15.17s5.44-.17,7.88-.17c.91,0,1.26.17,1.26.59a.75.75,0,0,1-.63.6,10.21,10.21,0,0,0-2,.16c-2.17.43-2.62,1.45-2.8,4-.09,2.29-.09,4.5-.09,15.75v1.52c0,.42.18.42.45.42h33.25c.26,0,.45,0,.45-.42V275c0-11.25-.09-13.46-.19-15.75-.17-2.47-.54-3.65-3.17-4-.63-.08-2-.16-2.71-.16a.67.67,0,0,1-.64-.6c0-.43.36-.59,1.27-.59,3.53,0,8.69.17,9.05.17s5.53-.17,7.88-.17c.91,0,1.36.17,1.36.59a.77.77,0,0,1-.73.6,10.66,10.66,0,0,0-2,.16c-2.09.43-2.53,1.45-2.71,4-.19,2.29-.19,4.33-.19,15.57V287.6"/><path class="cls-3" d="M207.47,274.83c0-11.24,0-13.28-.18-15.57-.17-2.47-.63-3.65-3.26-4-.64-.08-2-.16-2.73-.16a.76.76,0,0,1-.62-.6c0-.43.36-.59,1.26-.59,3.63,0,8.79.17,9.24.17s17.21.07,19,0c1.54-.09,3-.35,3.62-.43a5.16,5.16,0,0,1,1.08-.34c.28,0,.37.34.37.67a34.61,34.61,0,0,0-.64,3.41c-.09.68-.27,3.92-.45,4.77-.09.34-.36.77-.73.77s-.64-.34-.64-.94a7.26,7.26,0,0,0-.46-2.56c-.54-1.19-1.35-1.7-5.69-2.2-1.36-.18-10.61-.26-11.52-.26-.35,0-.44.26-.44.76v19.67c0,.5,0,.77.44.77,1,0,11.52,0,13.32-.17s3.08-.26,3.89-1c.55-.51.92-.93,1.19-.93s.46.16.46.59a37.71,37.71,0,0,0-.65,4c-.18,1.45-.35,4.16-.35,4.68s-.19,1.36-.73,1.36c-.36,0-.54-.26-.54-.68a6.06,6.06,0,0,0-.36-2.38c-.26-1-1-1.88-4.09-2.21-2.16-.25-10.68-.34-12-.34-.46,0-.54.27-.54.51v6.05c0,2.47-.1,10.89,0,12.35.17,4.84,1.63,5.78,9.51,5.78,2.08,0,5.89,0,8-.76s3.17-2.13,3.62-5c.18-.86.36-1.11.81-1.11s.54.59.54,1.11a56.84,56.84,0,0,1-1.09,7c-.54,1.87-1.36,1.87-4.44,1.87-6,0-10.59-.17-13.86-.26s-5.43-.16-6.61-.16c-.19,0-1.72,0-3.45.08-1.53.08-3.34.17-4.61.17-.82,0-1.27-.17-1.27-.6a.6.6,0,0,1,.64-.59c.72,0,1.72-.25,2.45-.34,1.54-.26,1.72-1.7,2.08-3.83.45-3,.45-8.68.45-15.66V274.83"/><path class="cls-3" d="M296.51,284.12c0,12.51.36,17.95,2,19.49,1.45,1.35,3.79,1.95,10.86,1.95,4.8,0,8.79-.08,11-2.56a11.36,11.36,0,0,0,2.36-5.11c.09-.68.27-1.1.81-1.1s.54.34.54,1.27a51.49,51.49,0,0,1-1.35,8.51c-.63,2-.91,2.3-5.71,2.3-6.52,0-11.22-.17-15-.25s-6.61-.25-9.23-.25c-.37,0-1.9.08-3.71.08s-3.81.17-5.17.17c-1,0-1.45-.17-1.45-.68,0-.25.19-.51.73-.51a15,15,0,0,0,2.72-.34c1.81-.34,2.26-2.22,2.62-4.68.47-3.58.47-10.31.47-18.48V269c0-13.28,0-15.66-.19-18.39-.18-2.88-.92-4.26-3.89-4.85a18.41,18.41,0,0,0-3.08-.26c-.37,0-.72-.17-.72-.52,0-.51.45-.68,1.45-.68,4.07,0,9.78.27,10.24.27s7.06-.27,9.78-.27c1,0,1.45.17,1.45.68,0,.35-.36.52-.72.52a23.36,23.36,0,0,0-3,.26c-2.62.42-3.35,1.87-3.53,4.85-.18,2.73-.18,5.11-.18,18.39v15.16"/><path class="cls-3" d="M335.74,274.83c0-11.24,0-13.28-.18-15.57s-.64-3.65-3.27-4c-.63-.08-2-.16-2.71-.16a.75.75,0,0,1-.63-.6c0-.43.35-.59,1.27-.59,3.62,0,8.41.17,9.15.17s5.71-.17,8.06-.17c.92,0,1.36.17,1.36.59a.76.76,0,0,1-.72.6,10.59,10.59,0,0,0-2,.16c-2.09.36-2.54,1.63-2.73,4s-.18,4.33-.18,15.57V285c0,10.46,2.45,14.81,5.9,17.7,3.89,3.32,7.33,3.91,11.86,3.91a16.85,16.85,0,0,0,12.32-5.1c3.71-4.16,4.54-10.13,4.54-17.53v-9.11c0-11.24-.1-13.28-.19-15.57s-.55-3.65-3.17-4c-.64-.08-2-.16-2.72-.16a.67.67,0,0,1-.64-.6c0-.43.37-.59,1.26-.59,3.54,0,8.16.17,8.62.17s4.34-.17,6.7-.17c.9,0,1.27.17,1.27.59a.67.67,0,0,1-.64.6,10.56,10.56,0,0,0-2,.16c-2.18.43-2.63,1.63-2.81,4s-.09,4.33-.09,15.57v7.75c0,7.83-1.09,16.6-7.42,21.71-5.8,4.67-12,5.27-16.68,5.27-2.62,0-10.94-.17-16.58-5.1-3.89-3.41-7-8.43-7-19V274.83"/><path class="cls-3" d="M416.18,280.62l-12.68-19.41c-1.81-2.82-3.34-4.86-6.07-5.61a16.05,16.05,0,0,0-3.35-.51.76.76,0,0,1-.72-.69c0-.34.36-.51,1.36-.51,2.27,0,8.7.17,9.33.17s5.08-.17,7.79-.17c1.09,0,1.36.17,1.36.51a.7.7,0,0,1-.72.69,10.49,10.49,0,0,0-2.18.16,1,1,0,0,0-1,1.1,5.24,5.24,0,0,0,.81,2.39c3.36,5.7,6.34,10.9,10.51,17.11,2.36-3.14,10.78-15.32,11.51-16.85a4.42,4.42,0,0,0,.81-2.56c0-.51-.54-.94-1.36-1.2a11.89,11.89,0,0,0-2.18-.16.7.7,0,0,1-.72-.69c0-.34.37-.51,1.36-.51,3,0,6.34.17,7.06.17s4-.17,6.71-.17c.91,0,1.27.17,1.27.51a.78.78,0,0,1-.82.69,11,11,0,0,0-2.71.33c-2.27.67-3.72,2.56-6,5.7l-12.78,17.53c1.54,2.21,15.13,23.25,16.85,25.19a7.47,7.47,0,0,0,4.53,3.15,15,15,0,0,0,2.72.43.56.56,0,0,1,.63.59c0,.35-.36.6-1.08.6-4.89,0-8.7,0-13.06-.17-2.07-.08-2.44-.25-2.44-.59a.65.65,0,0,1,.45-.6c.46-.09,1.19-.85.46-2-4.35-7.06-8.7-14.06-13.5-21.36l-12.23,19a6.69,6.69,0,0,0-1,3.24c0,.68.55,1,1.27,1.19a9.7,9.7,0,0,0,1.44.17.7.7,0,0,1,.73.68c0,.34-.46.51-1,.51-1.89,0-7.15-.25-7.88-.25s-4.62.25-7.24.25c-.65,0-.73-.25-.73-.51a.62.62,0,0,1,.64-.68,16.15,16.15,0,0,0,3-.43c2.36-.59,4-1.95,6.52-5.61l14.31-20.77"/><path class="cls-3" d="M457.39,274.83c0-11.24,0-13.28-.18-15.57s-.64-3.65-3.26-4c-.64-.08-2-.16-2.73-.16a.75.75,0,0,1-.62-.6c0-.43.35-.59,1.27-.59,3.61,0,8.42.17,9.14.17s5.7-.17,8.06-.17c.9,0,1.35.17,1.35.59a.78.78,0,0,1-.72.6,10.64,10.64,0,0,0-2,.16c-2.08.36-2.54,1.63-2.72,4s-.19,4.33-.19,15.57V285c0,10.46,2.45,14.81,5.89,17.7,3.9,3.32,7.34,3.91,11.88,3.91a16.8,16.8,0,0,0,12.3-5.1c3.73-4.16,4.53-10.13,4.53-17.53v-9.11c0-11.24-.08-13.28-.18-15.57s-.54-3.65-3.17-4c-.63-.08-2-.16-2.71-.16a.67.67,0,0,1-.64-.6c0-.43.36-.59,1.27-.59,3.53,0,8.15.17,8.6.17s4.35-.17,6.7-.17c.9,0,1.26.17,1.26.59a.66.66,0,0,1-.63.6,10.66,10.66,0,0,0-2,.16c-2.17.43-2.63,1.63-2.8,4s-.09,4.33-.09,15.57v7.75c0,7.83-1.1,16.6-7.43,21.71-5.8,4.67-12,5.27-16.67,5.27-2.62,0-11-.17-16.58-5.1-3.89-3.41-7-8.43-7-19V274.83"/><path class="cls-3" d="M527.77,274.83c0-11.24,0-13.28-.18-15.57-.19-2.47-.63-3.65-3.27-4-.63-.08-2-.16-2.72-.16a.75.75,0,0,1-.62-.6c0-.43.35-.59,1.27-.59,3.62,0,9,.17,9.41.17.8,0,7.52-.17,10-.17,5.07,0,10.68.42,14.87,3.15,2,1.35,5.52,4.85,5.52,9.87,0,5.36-2.36,10.55-9.78,16.52,6.52,7.65,12,14.21,16.66,18.72,4.27,4.08,6.88,4.76,8.88,5a15.6,15.6,0,0,0,2.81.25.69.69,0,0,1,.72.59c0,.43-.45.6-1.9.6h-5c-4.53,0-6.52-.43-8.52-1.45-3.44-1.7-6.35-5.19-10.88-10.64-3.34-3.92-6.88-8.6-8.59-10.56a1.29,1.29,0,0,0-1.11-.42l-10.13-.17c-.37,0-.54.17-.54.59v1.71c0,7,0,12.59.36,15.57.25,2.13.71,3.49,3.16,3.83a31.06,31.06,0,0,0,3.53.34c.55,0,.64.34.64.59s-.36.6-1.28.6c-4.34,0-9.41-.25-9.77-.25-.1,0-5.44.25-7.88.25-.82,0-1.28-.17-1.28-.6a.61.61,0,0,1,.65-.59,11.88,11.88,0,0,0,2.44-.34c1.54-.34,1.72-1.7,2.08-3.83.45-3,.45-8.68.45-15.66V274.83m6.9,6.13a1,1,0,0,0,.54.94c1.18.59,5.25,1.11,8.78,1.11a10.82,10.82,0,0,0,6-1.29c2.73-1.7,4.81-5.53,4.81-11.05,0-9-5.27-14.22-13.77-14.22a36.13,36.13,0,0,0-5.72.43.9.9,0,0,0-.61.84Z"/><path class="cls-3" d="M596.08,289.81c0-3.92-.54-5.36-1.72-7.4-.65-1.1-11.41-17.2-14.13-21A19.38,19.38,0,0,0,575,256.1a8.22,8.22,0,0,0-3.35-1,.78.78,0,0,1-.81-.69c0-.34.26-.51,1-.51,1.54,0,7.51.17,7.87.17.55,0,3.81-.17,6.87-.17.92,0,1.11.17,1.11.51s-.55.5-1.27.76-1,.6-1,1.19a5.67,5.67,0,0,0,1.08,2.82L601,281.72c1.63-3.06,11.59-18.55,13-20.93a7.48,7.48,0,0,0,1.35-3.74,1.68,1.68,0,0,0-1.26-1.88c-.72-.17-1.17-.5-1.17-.85s.45-.42,1.25-.42c2.09,0,4.89.17,5.53.17s6.24-.17,7.79-.17c.53,0,1,.17,1,.42a.92.92,0,0,1-1,.77,8.36,8.36,0,0,0-3.71.93,13.44,13.44,0,0,0-4,3.58c-2.62,2.89-13.86,19.92-15.48,23-1.36,2.55-1,4.84-1,7.23V296c0,1.2,0,4.26.27,7.24.2,2.13.73,3.49,3.08,3.83a32.8,32.8,0,0,0,3.63.34.6.6,0,0,1,.63.59c0,.35-.47.6-1.27.6-4.44,0-9.59-.25-10.05-.25s-5.43.25-7.79.25c-.91,0-1.28-.17-1.28-.6a.6.6,0,0,1,.64-.59,11.32,11.32,0,0,0,2.35-.34c1.63-.34,2.17-1.7,2.36-3.83.18-3,.18-6,.18-7.24v-6.21"/><path class="cls-3" d="M673.16,297c.19,7,1.08,9.2,3.53,9.88a21.14,21.14,0,0,0,4.53.51c.45,0,.73.18.73.51,0,.51-.55.68-1.63.68-5.17,0-8.78-.25-9.6-.25s-4.62.25-8.69.25c-.91,0-1.46-.09-1.46-.68,0-.34.28-.51.74-.51a13.64,13.64,0,0,0,3.7-.51c2.27-.59,2.74-3.07,2.74-10.82l.08-48.77c0-3.32.27-4.25,1-4.25s2.27,1.85,3.17,2.72c1.37,1.45,14.86,15.14,28.82,29.2,9,9,18.85,19.4,21.75,22.21l-1-43.25c-.08-5.53-.71-7.39-3.53-8.08a26.45,26.45,0,0,0-4.43-.42c-.66,0-.73-.25-.73-.6,0-.5.73-.59,1.81-.59,4.06,0,8.42.27,9.41.27s4-.27,7.7-.27c1,0,1.63.09,1.63.59,0,.35-.35.6-1,.6a8.29,8.29,0,0,0-2.16.26c-3,.59-3.35,2.48-3.35,7.58l-.18,49.88c0,5.62-.19,6-.82,6s-1.82-.94-6.61-5.44c-1-.86-14-13.37-23.64-23.08-10.51-10.64-20.75-21.37-23.65-24.43L673.16,297"/><path class="cls-3" d="M754.42,274.83c0-11.24,0-13.28-.19-15.57-.19-2.47-.64-3.65-3.27-4-.63-.08-2-.16-2.71-.16a.77.77,0,0,1-.63-.6c0-.43.37-.59,1.27-.59,3.61,0,8.77.17,9.24.17s17.21.07,19,0c1.55-.09,3-.35,3.64-.43a4.68,4.68,0,0,1,1.09-.34c.27,0,.37.34.37.67,0,.52-.45,1.36-.63,3.41-.1.68-.29,3.92-.47,4.77-.08.34-.35.77-.71.77s-.64-.34-.64-.94a7.49,7.49,0,0,0-.44-2.56c-.55-1.19-1.37-1.7-5.71-2.2C772.27,257,763,257,762.12,257c-.37,0-.45.26-.45.76v19.67c0,.5,0,.77.45.77,1,0,11.51,0,13.31-.17s3.08-.26,3.9-1c.53-.51.89-.93,1.16-.93s.47.16.47.59a35,35,0,0,0-.64,4c-.17,1.45-.36,4.16-.36,4.68s-.19,1.36-.72,1.36c-.36,0-.55-.26-.55-.68a6.16,6.16,0,0,0-.36-2.38c-.28-1-1-1.88-4.07-2.21-2.17-.25-10.7-.34-12.05-.34-.46,0-.54.27-.54.51v6.05c0,2.47-.1,10.89,0,12.35.17,4.84,1.63,5.78,9.5,5.78,2.09,0,5.9,0,8-.76s3.16-2.13,3.62-5c.18-.86.37-1.11.82-1.11s.54.59.54,1.11a58.57,58.57,0,0,1-1.08,7c-.54,1.87-1.37,1.87-4.44,1.87-6,0-10.59-.17-13.86-.26s-5.43-.16-6.6-.16c-.19,0-1.74,0-3.45.08-1.55.08-3.36.17-4.62.17-.82,0-1.26-.17-1.26-.6a.59.59,0,0,1,.63-.59,24.68,24.68,0,0,0,2.45-.34c1.55-.26,1.71-1.7,2.07-3.83.47-3,.47-8.68.47-15.66V274.83"/><path class="cls-3" d="M821.7,287.6c0,7,0,12.69.39,15.66.27,2.13.62,3.49,3.07,3.83a32.57,32.57,0,0,0,3.62.34c.56,0,.65.34.65.59s-.38.6-1.28.6c-4.33,0-9.43-.25-9.88-.25s-5.89.25-8.24.25c-.91,0-1.25-.17-1.25-.6,0-.25.17-.5.63-.5a11,11,0,0,0,2.34-.35c1.63-.35,2.1-1.78,2.37-3.91.35-3,.35-8.68.35-15.66V257.22l-11.5.16c-5,.09-6.88.61-8,2.3a10.48,10.48,0,0,0-1.28,2.3c-.19.6-.45.68-.82.68a.58.58,0,0,1-.53-.59c0-.76,1.62-7.23,1.71-7.83.2-.43.55-1.36.82-1.36a26.71,26.71,0,0,0,3.53.84c2.27.26,5.35.35,6.25.35h30.09a39.4,39.4,0,0,0,5.71-.35c1.16-.16,1.9-.32,2.27-.32s.34.42.34.85c0,2.21-.27,7.41-.27,8.26,0,.59-.37.94-.73.94s-.53-.26-.63-1.28l-.09-.76c-.27-2.22-2-3.83-9.59-4l-10-.16V287.6"/><path class="cls-3" d="M909.58,297.89h.36c2-6,9.15-26.89,12-36.17a14.3,14.3,0,0,0,.91-4.5c0-1.29-.62-2.13-4.25-2.13a.77.77,0,0,1-.75-.69c0-.34.38-.51,1.37-.51,4.08,0,7.42.17,8.15.17.54,0,4-.17,6.44-.17.75,0,1.08.17,1.08.42a.7.7,0,0,1-.72.77,13.12,13.12,0,0,0-2.7.33c-2.37.76-3.64,3.66-5.17,7.65-3.54,9.2-11.41,32.18-14.59,40.27-2.09,5.37-2.54,6.22-3.44,6.22s-1.55-.94-2.62-3.74L890,266.24c-2.7,6.29-13.49,32.77-16.4,39.49-1.36,3.07-1.89,3.84-2.79,3.84s-1.46-.77-3.08-5.71l-14.14-42.9c-1.29-3.82-2.1-4.77-4.17-5.44a15.68,15.68,0,0,0-3.62-.42.71.71,0,0,1-.73-.69c0-.34.53-.51,1.27-.51,4.17,0,8.6.17,9.42.17s4.34-.17,8.34-.17c1.07,0,1.44.17,1.44.51a.78.78,0,0,1-.82.69,7.25,7.25,0,0,0-2.81.42,1.47,1.47,0,0,0-1.08,1.54,39.17,39.17,0,0,0,1.54,6.72c1.28,4.6,9.42,31.16,10.42,34.13H873l16.69-40.43c1.17-2.9,1.7-3.33,2.17-3.33s1.17,1,2.16,3.42l15.59,40.34"/><path class="cls-3" d="M970.29,252.87c17.92,0,31.51,10.3,31.51,27.15,0,16.17-12.78,29.54-32,29.54-21.84,0-31.19-15.41-31.19-28.43,0-11.66,9.63-28.26,31.65-28.26m1.8,53.71c7.16,0,21.55-3.57,21.55-24.51,0-17.36-11.22-26.46-23.8-26.46-13.32,0-22.93,7.82-22.93,23.57C946.91,296,957.68,306.57,972.09,306.57Z"/><path class="cls-3" d="M1018.47,274.83c0-11.24,0-13.28-.19-15.57-.18-2.47-.63-3.65-3.26-4-.64-.08-2-.16-2.72-.16a.76.76,0,0,1-.63-.6c0-.43.36-.59,1.25-.59,3.63,0,9,.17,9.43.17.81,0,7.51-.17,10-.17,5.07,0,10.7.42,14.86,3.15,2,1.35,5.52,4.85,5.52,9.87,0,5.36-2.35,10.55-9.78,16.52,6.51,7.65,12.05,14.21,16.67,18.72,4.25,4.08,6.88,4.76,8.87,5a15.8,15.8,0,0,0,2.82.25.7.7,0,0,1,.73.59c0,.43-.45.6-1.91.6h-5c-4.54,0-6.52-.43-8.52-1.45-3.46-1.7-6.35-5.19-10.86-10.64-3.37-3.92-6.89-8.6-8.61-10.56a1.28,1.28,0,0,0-1.09-.42l-10.15-.17c-.36,0-.55.17-.55.59v1.71c0,7,0,12.59.37,15.57.27,2.13.72,3.49,3.18,3.83a30.72,30.72,0,0,0,3.52.34c.55,0,.64.34.64.59s-.36.6-1.28.6c-4.35,0-9.41-.25-9.78-.25-.08,0-5.44.25-7.89.25-.82,0-1.26-.17-1.26-.6a.61.61,0,0,1,.64-.59,12.11,12.11,0,0,0,2.44-.34c1.55-.34,1.73-1.7,2.08-3.83.46-3,.46-8.68.46-15.66V274.83m6.88,6.13a1.07,1.07,0,0,0,.55.94c1.17.59,5.25,1.11,8.78,1.11a10.85,10.85,0,0,0,6-1.29c2.73-1.7,4.82-5.53,4.82-11.05,0-9-5.26-14.22-13.77-14.22a35.92,35.92,0,0,0-5.72.43.92.92,0,0,0-.63.84Z"/><path class="cls-3" d="M1079.35,274.83c0-11.24,0-13.28-.2-15.57-.17-2.47-.63-3.65-3.25-4-.63-.08-2-.16-2.72-.16a.76.76,0,0,1-.63-.6c0-.43.37-.59,1.26-.59,3.63,0,8.53.17,9,.17.73,0,5.53-.17,7.88-.17.9,0,1.26.17,1.26.59a.67.67,0,0,1-.64.6,10.39,10.39,0,0,0-2,.16c-2.09.43-2.64,1.45-2.82,4-.2,2.29-.2,4.33-.2,15.57v4.35h.38c1.26-1.36,15.5-14.56,18.49-17.45,2.26-2.12,4.34-4,4.34-5.21,0-.91-.38-1.35-1-1.43a.83.83,0,0,1-.72-.69c0-.34.35-.51.89-.51,1.64,0,4.09.17,6,.17.45,0,5.72-.17,7.69-.17.83,0,1.18.17,1.18.51s-.18.59-.8.59a13.82,13.82,0,0,0-4.45,1c-3.25,1.36-4.8,3-8.32,6.13-2,1.7-15.59,13.95-17.31,15.74,2.08,2.13,18.67,17.71,21.92,20.52,6.71,5.62,7.61,6.55,11.42,8a17.89,17.89,0,0,0,4.9,1c.54,0,1,.26,1,.59s-.37.6-1.73.6h-4.08a54.24,54.24,0,0,1-5.53-.17c-4.16-.34-6.24-2-9.68-4.42-3.62-2.64-20.38-19.25-24.18-23.49h-.38v7.06c0,7,0,12.69.38,15.66.27,2.13.63,3.49,3.08,3.83a24.12,24.12,0,0,0,3.09.34.6.6,0,0,1,.63.59c0,.35-.38.6-1.27.6-3.9,0-8.7-.25-9.33-.25s-5.44.25-7.89.25c-.82,0-1.26-.17-1.26-.6a.59.59,0,0,1,.63-.59,12.26,12.26,0,0,0,2.46-.34c1.52-.34,1.71-1.7,2.06-3.83.48-3,.48-8.68.48-15.66V274.83"/><path class="cls-4" d="M685.85,85.31c-1.42-12.75-7.64-25.32-17.42-35.1a60.52,60.52,0,0,0-35.34-17.52c-10-8-23.32-12.5-37.14-12.5A60.55,60.55,0,0,0,558.69,32.7a61.81,61.81,0,0,0-52.76,52.78c-8,10-12.51,23.35-12.51,37.23A60.72,60.72,0,0,0,506,160.14c1.44,12.72,7.69,25.27,17.46,35a60.71,60.71,0,0,0,35.37,17.6c10,8,23.3,12.43,37.12,12.43a60.63,60.63,0,0,0,37.44-12.56c12.71-1.44,25.27-7.69,35-17.46A60.68,60.68,0,0,0,686,159.75c8-10,12.43-23.27,12.43-37.05a60.5,60.5,0,0,0-12.61-37.39m-2.07,52.21a30.48,30.48,0,0,0-5.28-10.38L675,122.7l3.78-4.81a30.33,30.33,0,0,0,4.6-9,48.74,48.74,0,0,0,3-17.06c0-.83-.08-1.67-.12-2.5a58.72,58.72,0,0,1,0,66.65c0-.89.13-1.79.13-2.67A48.17,48.17,0,0,0,683.78,137.53ZM636,210.21a48.76,48.76,0,0,0,11.58-14.92,29.92,29.92,0,0,0,3.61-11.08s.52-4.38.66-5.62l6.07-.72a30.35,30.35,0,0,0,9.6-3.1,49.29,49.29,0,0,0,16-12.08A58.94,58.94,0,0,1,636,210.21ZM524.74,193.89a58.9,58.9,0,0,1-16.31-31.14,48.87,48.87,0,0,0,14.93,11.59A30.51,30.51,0,0,0,534.42,178l5.62.65c.12.9.9,7.09.9,7.09a31.2,31.2,0,0,0,3.36,9.59,48.9,48.9,0,0,0,11.6,14.94A58.88,58.88,0,0,1,524.74,193.89Zm-19.12-37.83a58.93,58.93,0,0,1,0-66.74c0,.83-.12,1.66-.12,2.48a48.86,48.86,0,0,0,3.27,17.79l3.22,6.62s4.09,5.39,4.91,6.47l-4.4,5.68a31.11,31.11,0,0,0-4.41,9.14,48,48,0,0,0-2.61,15.83C505.49,154.24,505.57,155.15,505.62,156.06Zm50.3-120.84a49.35,49.35,0,0,0-12.34,16.6l-2.4,7s-.93,6.7-1.12,8l-7.12.9a31.23,31.23,0,0,0-9.59,3.34,48.88,48.88,0,0,0-14.9,11.56,58.8,58.8,0,0,1,47.46-47.4ZM667.13,51.51a58.71,58.71,0,0,1,16.29,31.17,49.38,49.38,0,0,0-16.59-12.32l-7-2.41-8-1.11-.73-6.09a30.47,30.47,0,0,0-3.09-9.6,49.36,49.36,0,0,0-12-15.92A58.75,58.75,0,0,1,667.13,51.51Zm-159.71,102s.23-3.35.36-5.17h0s.09-1.52.09-1.59a43,43,0,0,1,10.36-22.47l.2.22c9.58,9.58,22.93,14.08,37.6,12.69l7.28-.9-3,2.19c-13,9.33-20.44,23.11-20.44,37.79,0,0,0,.15,0,.29A42.81,42.81,0,0,1,516.77,168a51.56,51.56,0,0,1-9.13-8.92s0-.11,0-.29C507.66,157.67,507.42,153.5,507.42,153.5Zm177-61.42s-.23,2.87-.41,5.14h-.08l-.13,2.66a42.64,42.64,0,0,1-10.18,21.25l-.18-.19c-11.45-11.47-28.62-15.61-46-11.21l2.21-1.51c14.21-9.39,22.36-23.62,22.36-39,0,0,0-.15,0-.3a42.72,42.72,0,0,1,22.33,8l.58.53a50.51,50.51,0,0,1,9.29,8.94s0,.1,0,.28C684.15,87.75,684.4,92.07,684.4,92.07ZM606,132.88l15.31,8.25c13.87,7.56,28.69,20.94,28.69,35.81-14.82-.19-28.24-15-35.82-28.88h0Zm15.31-28.39L605,113.24l8.49-16c7.55-13.82,21.13-28.59,36.65-28.59C650,83.52,635.15,96.92,621.28,104.49Zm5.46,23.27-16.5-5,16.65-5c15.14-4.46,35.08-5.48,45.59,5C661.88,133.2,641.91,132.2,626.74,127.76ZM601,91.9l-5.29,17.66-5.29-17.29a74.34,74.34,0,0,1-3.08-20.51c0-9.78,2.38-19.24,8.77-25.62,5.89,6,8.1,15.1,8.1,24.57A76.76,76.76,0,0,1,601,91.9Zm-10.44,61.38,5.15-16.82,5.16,17.19A76.56,76.56,0,0,1,604,174.74c0,9.4-2.23,18.35-8.1,24.34-6.15-6.35-8.5-15.63-8.5-25.24A74.47,74.47,0,0,1,590.53,153.28ZM541.9,68.46c15.13.21,28.69,15,36.23,28.8l8.81,16.59-16.46-8.74C556.67,97.56,541.9,84,541.9,68.46Zm41.43,54.34-17.83,5.46c-15,4.41-34.92,5.23-45.92-5.54,11-10.66,30.8-9.83,45.79-5.43Zm-12.83,17.71L586,132.25l-8.52,15.81c-7.51,13.79-20.79,28.5-35.56,28.66C542.17,161.41,556.77,148,570.49,140.51Zm-54-62.91.17-.15a43,43,0,0,1,23.21-8.57c0,.15,0,.29,0,.29,0,13.55,6.27,26.18,17.63,35.57l5.79,4.52-3.69-.58c-15.78-2.57-30.8,1.89-41.17,12.26l-.18.19a42.84,42.84,0,0,1-10.19-21.4l-.13-2.49h-.08l-.41-5.14.36-6.18A55.33,55.33,0,0,1,516.51,77.59Zm158.23,90.59-.49.44A42.65,42.65,0,0,1,652,176.55c0-.15,0-.3,0-.3,0-16.22-9.21-31.3-24.6-40.46l2.66.49c16.65,3.41,32.47-.89,43.38-11.8l.2-.22A42.92,42.92,0,0,1,684,146.64s.08,1.69.08,1.69h0a48.65,48.65,0,0,1,.36,5.16,51.74,51.74,0,0,1-.33,5.81A53.85,53.85,0,0,1,674.74,168.18ZM641.51,44l.29.32a43,43,0,0,1,8,22.33l-.3,0c-13.55,0-26.17,6.26-35.55,17.62l-4.76,6.16c.17-.9.34-1.84.34-1.84a55,55,0,0,0,1.15-11.06c0-12.45-4.48-23.85-12.94-32.31l-.2-.18a42.83,42.83,0,0,1,21.4-10.2l2.5-.13v-.08a50.39,50.39,0,0,1,11-.08A49.92,49.92,0,0,1,641.51,44ZM609,35.56l-6.62,3.23L596,43.69l-4.83-3.8a30.17,30.17,0,0,0-9-4.6A49.25,49.25,0,0,0,562.6,32.4a58.75,58.75,0,0,1,66.65,0A49,49,0,0,0,609,35.56Zm-38.61-.91v.08l2.55.13A42.69,42.69,0,0,1,594.35,45l-.19.17c-8.43,8.41-12.93,19.77-12.93,32.39q0,2.57.25,5.21s.55,4.43.9,7.29l-2.2-3c-9.33-13-23.11-20.44-37.77-20.44h-.3a42.81,42.81,0,0,1,8-22.34l.42-.45a50.67,50.67,0,0,1,9-9.3A50.46,50.46,0,0,1,570.44,34.64Zm-19.5,167.61a42.84,42.84,0,0,1-8.83-23.51h.29c16.12,0,31.1-9.13,40.28-24.37-.37,2.19-.78,4.64-.78,4.64a53.87,53.87,0,0,0-.71,8.69c0,12.5,4.53,24,13,32.48l.22.2A42.84,42.84,0,0,1,572,210.74l-1.69.09v0a50.78,50.78,0,0,1-11.09,0A55,55,0,0,1,550.94,202.25Zm30.17,8.3a30.43,30.43,0,0,0,10.39-5.29l4.45-3.52,5.66,4.38a30.85,30.85,0,0,0,9.12,4.41A48.75,48.75,0,0,0,629.3,213a58.89,58.89,0,0,1-66.74,0A48.59,48.59,0,0,0,581.11,210.56Zm40.44.32v0l-1.58-.09a43,43,0,0,1-22.47-10.35l.23-.21c8.46-8.47,13-20,13-32.52a55.16,55.16,0,0,0-1.76-13.53l1.56,2.27c9.34,14.18,23.57,22.33,39,22.33l.29,0a42.79,42.79,0,0,1-8.51,23.13,52.48,52.48,0,0,1-8.94,9.14A55.77,55.77,0,0,1,621.54,210.87Z"/><rect class="cls-4" x="197.62" y="331.67" width="796.64" height="1.93"/><path class="cls-3" d="M1132.84,253.89a6.83,6.83,0,1,0,6.86,6.8,6.82,6.82,0,0,0-6.86-6.8m0,12.66a5.83,5.83,0,1,1,5.61-5.86A5.65,5.65,0,0,1,1132.84,266.56Z"/><path class="cls-3" d="M1136.06,259c0-1.53-.9-2.29-2.79-2.29h-3.09v8h1.24v-3.43h1.31l2.18,3.43h1.33l-2.28-3.53a2.05,2.05,0,0,0,2.1-2.17m-3.35,1.26h-1.29v-2.54h1.64c.84,0,1.75.16,1.75,1.23C1134.81,260.22,1133.81,260.27,1132.71,260.27Z"/></g></svg>